<?xml version="1.0" encoding="UTF-8"?>
<svg width="246px" height="261px" viewBox="0 0 246 261" version="1.1" xmlns="http://www.w3.org/2000/svg" xmlns:xlink="http://www.w3.org/1999/xlink">
    <!-- Generator: Sketch 43.2 (39069) - http://www.bohemiancoding.com/sketch -->
    <title>coop-logo</title>
    <desc>Created with Sketch.</desc>
    <defs></defs>
    <g id="Page-1" stroke="none" stroke-width="1" fill="none" fill-rule="evenodd">
        <g id="coop-logo" transform="translate(-1.000000, 0.000000)" fill-rule="nonzero" fill="#00B1E7">
            <path d="M246.73,57.22 C246.737257,47.8995022 245.444812,38.6235187 242.89,29.66 C239.613538,18.5990936 231.339927,9.71467898 220.54,5.66 C199.076641,-1.84193739 175.703359,-1.84193739 154.24,5.66 C143.431129,9.70131413 135.152495,18.5911233 131.89,29.66 C126.735599,47.6820298 126.735599,66.7879702 131.89,84.81 C135.153896,95.8780777 143.432026,104.767345 154.24,108.81 C164.89096,112.538892 176.095162,114.442322 187.38,114.44 C198.670451,114.441482 209.880538,112.541582 220.54,108.82 C231.338145,104.762659 239.610757,95.8793175 242.89,84.82 C245.447473,75.843382 246.739934,66.5538225 246.73,57.22 L246.73,57.22 Z M210.89,57.22 C210.908457,61.7722018 210.23407,66.3007061 208.89,70.65 C207.018864,76.5478032 202.074247,80.9515432 196,82.13 C190.31618,83.2312106 184.47382,83.2312106 178.79,82.13 C172.729675,80.9434002 167.799092,76.5457501 165.93,70.66 C163.199892,61.9113764 163.199892,52.5386236 165.93,43.79 C167.799092,37.9042499 172.729675,33.5065998 178.79,32.32 C184.474198,31.2227421 190.315802,31.2227421 196,32.32 C202.057991,33.5136762 206.983786,37.9143083 208.85,43.8 C210.194526,48.1491901 210.868923,52.6777646 210.85,57.23 L210.89,57.22 Z M115.85,207.23 C120.97834,189.204326 120.97834,170.105674 115.85,152.08 C112.578408,141.019679 104.307881,132.134601 93.51,128.08 C72.0474473,120.573314 48.6725527,120.573314 27.21,128.08 C16.3993348,132.11863 8.11968952,141.009524 4.86,152.08 C-0.298146335,170.101505 -0.298146335,189.208495 4.86,207.23 C8.12109257,218.299676 16.4002324,227.190028 27.21,231.23 C48.673359,238.731937 72.046641,238.731937 93.51,231.23 C104.309927,227.175321 112.583538,218.290906 115.86,207.23 L115.85,207.23 Z M83.86,179.66 C83.8774554,184.215407 83.2031028,188.747057 81.86,193.1 C79.9878517,198.98187 75.0578474,203.375171 69,204.56 C63.3161566,205.660963 57.4738434,205.660963 51.79,204.56 C45.7159034,203.390408 40.7670656,198.993999 38.89,193.1 C36.1630588,184.350894 36.1630588,174.979106 38.89,166.23 C40.7621483,160.34813 45.6921526,155.954829 51.75,154.77 C57.434104,153.671757 63.275896,153.671757 68.96,154.77 C75.0216606,155.95153 79.9561476,160.345408 81.83,166.23 C83.1721018,170.579742 83.8464431,175.107943 83.83,179.66 L83.86,179.66 Z M83.86,57 L119.7,57 C119.68461,47.7500684 118.392413,38.546536 115.86,29.65 C112.585623,18.5912684 104.316096,9.70726427 93.52,5.65 C72.0532044,-1.85189479 48.6767956,-1.85189479 27.21,5.65 C16.402026,9.69265486 8.12389574,18.5819223 4.86,29.65 C-0.294935957,47.6719548 -0.294935957,66.7780452 4.86,84.8 C8.12389574,95.8680777 16.402026,104.757345 27.21,108.8 C37.8616307,112.52629 49.0653876,114.429644 60.35,114.43 C71.6441531,114.426727 82.8572877,112.523502 93.52,108.8 C104.319036,104.74399 112.592147,95.8601117 115.87,84.8 C116.31,83.28 116.71,81.71 117.07,80.16 L83.29,64.41 C82.954199,66.5257194 82.466267,68.6144695 81.83,70.66 C79.9641482,76.5363831 75.0478851,80.9315147 69,82.13 C63.3161566,83.2309627 57.4738434,83.2309627 51.79,82.13 C45.7144216,80.9566187 40.7658962,76.5566507 38.89,70.66 C36.162426,61.9109904 36.162426,52.5390096 38.89,43.79 C40.7621483,37.9081299 45.6921526,33.514829 51.75,32.33 C57.4339621,31.2302751 63.2760379,31.2302751 68.96,32.33 C75.0241389,33.5132994 79.9592044,37.911528 81.83,43.8 C83.1502712,48.0792843 83.8243658,52.5316791 83.83,57.01 L83.86,57 Z M131.83,152.09 C129.278797,161.05746 127.989733,170.336703 128,179.66 L128,260.46 L163.84,260.46 L163.84,179.66 C163.818109,175.107552 164.492572,170.578529 165.84,166.23 C167.712148,160.34813 172.642153,155.954829 178.7,154.77 C184.38408,153.67151 190.22592,153.67151 195.91,154.77 C201.966851,155.956837 206.895972,160.34935 208.77,166.23 C211.493782,174.979587 211.493782,184.350413 208.77,193.1 C206.913254,198.957475 202.023517,203.345602 196,204.56 C190.31592,205.65849 184.47408,205.65849 178.79,204.56 C177.628154,204.34607 176.491942,204.010904 175.4,203.56 L187.55,236.94 C198.78748,236.922425 209.942356,235.019335 220.55,231.31 C231.350819,227.256653 239.624931,218.371701 242.9,207.31 C248.020416,189.283221 248.020416,170.186779 242.9,152.16 C239.626324,141.097503 231.351712,132.212014 220.55,128.16 C199.087447,120.653314 175.712553,120.653314 154.25,128.16 C143.438437,132.197286 135.158285,141.088724 131.9,152.16 L131.83,152.09 Z" id="Shape"></path>
        </g>
    </g>
</svg>