<?xml version="1.0" encoding="UTF-8"?>
<svg width="793px" height="142px" viewBox="0 0 793 142" version="1.1" xmlns="http://www.w3.org/2000/svg" xmlns:xlink="http://www.w3.org/1999/xlink">
    <!-- Generator: Sketch 43.2 (39069) - http://www.bohemiancoding.com/sketch -->
    <title>Power Pack</title>
    <desc>Created with Sketch.</desc>
    <defs>
        <path d="M735.425,3.183 C733.932,4.723 733.185,6.637 733.185,8.925 L733.185,90.501 C733.185,92.79 733.932,94.703 735.425,96.243 C736.919,97.783 738.807,98.553 741.091,98.553 C743.374,98.553 745.263,97.783 746.756,96.243 C748.249,94.703 748.996,92.79 748.996,90.501 L748.996,76.641 L755.451,70.701 L779.166,95.781 C780.748,97.542 782.68,98.421 784.963,98.421 C786.896,98.421 788.718,97.673 790.431,96.177 C792.143,94.682 793,92.833 793,90.633 C793,88.434 792.166,86.454 790.496,84.693 L767.44,59.613 L787.335,41.266 C789.443,39.417 790.496,37.437 790.496,35.326 C790.496,33.654 789.728,32.004 788.191,30.376 C786.654,28.748 784.919,27.933 782.987,27.933 C780.791,27.933 778.859,28.769 777.19,30.441 L748.996,57.765 L748.996,8.925 C748.996,6.637 748.249,4.723 746.756,3.183 C745.263,1.643 743.374,0.874 741.091,0.874 C738.807,0.874 736.919,1.643 735.425,3.183 Z M512.505,6.153 L542.545,6.153 C547.024,6.153 551.284,7.495 555.324,10.18 C559.364,12.863 562.614,16.472 565.073,21.003 C567.533,25.535 568.763,30.486 568.763,35.853 C568.763,41.133 567.533,46.062 565.073,50.637 C562.614,55.213 559.364,58.844 555.324,61.527 C551.284,64.211 547.024,65.553 542.545,65.553 L519.62,65.553 L519.62,90.501 C519.62,92.877 518.917,94.813 517.512,96.31 C516.106,97.805 514.262,98.553 511.978,98.553 C509.783,98.553 507.982,97.783 506.577,96.243 C505.171,94.703 504.468,92.79 504.468,90.501 L504.468,14.205 C504.468,11.918 505.237,10.003 506.774,8.463 C508.311,6.923 510.222,6.153 512.505,6.153 Z M519.62,21.333 L519.62,50.505 L542.545,50.505 C544.213,50.505 545.86,49.801 547.485,48.394 C549.11,46.985 550.427,45.159 551.438,42.915 C552.447,40.672 552.952,38.317 552.952,35.853 C552.952,33.39 552.447,31.035 551.438,28.792 C550.427,26.547 549.11,24.743 547.485,23.379 C545.86,22.016 544.213,21.333 542.545,21.333 L519.62,21.333 Z M8.036,6.153 L38.076,6.153 C42.555,6.153 46.815,7.495 50.855,10.18 C54.896,12.863 58.146,16.472 60.605,21.003 C63.064,25.535 64.294,30.486 64.294,35.853 C64.294,41.133 63.064,46.062 60.605,50.637 C58.146,55.213 54.896,58.844 50.855,61.527 C46.815,64.211 42.555,65.553 38.076,65.553 L15.151,65.553 L15.151,90.501 C15.151,92.877 14.448,94.813 13.043,96.31 C11.638,97.805 9.793,98.553 7.51,98.553 C5.314,98.553 3.513,97.783 2.108,96.243 C0.702,94.703 0,92.79 0,90.501 L0,14.205 C0,11.918 0.768,10.003 2.305,8.463 C3.842,6.923 5.753,6.153 8.036,6.153 Z M15.151,21.333 L15.151,50.505 L38.076,50.505 C39.744,50.505 41.391,49.801 43.016,48.394 C44.641,46.985 45.959,45.159 46.969,42.915 C47.979,40.672 48.483,38.317 48.483,35.853 C48.483,33.39 47.979,31.035 46.969,28.792 C45.959,26.547 44.641,24.743 43.016,23.379 C41.391,22.016 39.744,21.333 38.076,21.333 L15.151,21.333 Z M676.797,31.299 C671.527,34.423 667.421,38.757 664.479,44.301 C661.536,49.845 660.065,56.181 660.065,63.309 C660.065,70.174 661.47,76.399 664.28,81.987 C667.091,87.575 671.066,91.954 676.204,95.122 C681.343,98.29 687.293,99.874 694.056,99.874 C698.624,99.874 702.927,99.324 706.967,98.223 C711.008,97.123 714.258,95.649 716.717,93.801 C719.176,91.954 720.406,89.974 720.406,87.861 C720.406,85.662 719.769,83.857 718.496,82.45 C717.222,81.041 715.488,80.337 713.292,80.337 C712.15,80.337 711.184,80.514 710.393,80.866 C709.603,81.218 708.746,81.723 707.824,82.383 C706.902,83.044 706.177,83.505 705.65,83.769 C703.542,84.826 700.336,85.353 696.032,85.353 C690.147,85.353 685.317,83.263 681.54,79.084 C677.763,74.903 675.874,69.645 675.874,63.309 C675.874,56.71 677.741,51.364 681.474,47.271 C685.207,43.179 690.367,41.133 696.955,41.133 C698.009,41.133 699.392,41.31 701.105,41.662 C702.818,42.014 704.113,42.41 704.991,42.85 C705.782,43.29 706.594,43.84 707.428,44.499 C708.263,45.159 709.119,45.687 709.998,46.083 C710.876,46.479 712.018,46.677 713.423,46.677 C715.268,46.677 716.761,45.951 717.902,44.499 C719.045,43.048 719.615,41.353 719.615,39.417 C719.615,35.545 717.332,32.443 712.764,30.111 C708.197,27.779 702.18,26.614 694.715,26.614 C688.04,26.614 682.067,28.175 676.797,31.299 Z M633.32,28.923 C634.813,27.383 636.701,26.614 638.985,26.614 C641.268,26.614 643.157,27.362 644.65,28.857 C646.144,30.353 646.89,32.289 646.89,34.665 L646.89,90.501 C646.89,92.79 646.144,94.703 644.65,96.243 C643.157,97.783 641.268,98.553 638.985,98.553 C636.701,98.553 634.835,97.805 633.385,96.31 C631.936,94.813 631.168,92.921 631.079,90.633 C628.884,93.186 625.92,95.364 622.187,97.167 C618.454,98.971 614.523,99.874 610.395,99.874 C604.335,99.874 598.845,98.311 593.927,95.187 C589.008,92.063 585.121,87.729 582.267,82.185 C579.412,76.641 577.985,70.349 577.985,63.309 C577.985,56.27 579.39,49.955 582.201,44.367 C585.011,38.779 588.854,34.423 593.729,31.299 C598.604,28.175 603.983,26.614 609.868,26.614 C614.084,26.614 618.037,27.383 621.726,28.923 C625.415,30.463 628.532,32.421 631.079,34.797 L631.079,34.665 C631.079,32.377 631.826,30.463 633.32,28.923 Z M598.472,79.084 C602.029,83.263 606.662,85.353 612.371,85.353 C618.081,85.353 622.736,83.263 626.336,79.084 C629.938,74.903 631.738,69.645 631.738,63.309 C631.738,56.973 629.938,51.693 626.336,47.469 C622.736,43.246 618.081,41.133 612.371,41.133 C606.75,41.133 602.139,43.246 598.538,47.469 C594.936,51.693 593.136,56.973 593.136,63.309 C593.136,69.645 594.915,74.903 598.472,79.084 Z M359.808,29.451 C356.03,31.343 353.133,34.094 351.112,37.702 L351.112,35.985 C351.112,33.698 350.366,31.783 348.873,30.243 C347.38,28.703 345.491,27.933 343.207,27.933 C340.924,27.933 339.035,28.703 337.542,30.243 C336.049,31.783 335.303,33.698 335.303,35.985 L335.303,90.501 C335.303,92.79 336.049,94.703 337.542,96.243 C339.035,97.783 340.924,98.553 343.207,98.553 C345.491,98.553 347.38,97.783 348.873,96.243 C350.366,94.703 351.112,92.79 351.112,90.501 L351.112,59.217 C351.112,55.257 351.793,51.847 353.154,48.988 C354.516,46.128 356.25,43.994 358.359,42.585 C360.467,41.178 362.663,40.474 364.946,40.474 C366,40.474 366.988,40.605 367.91,40.87 C368.833,41.133 369.425,41.31 369.689,41.397 C371.357,42.014 372.851,42.321 374.168,42.321 C376.1,42.321 377.77,41.639 379.175,40.276 C380.581,38.911 381.283,36.866 381.283,34.138 C381.283,32.114 380.383,30.353 378.582,28.857 C376.782,27.362 374.563,26.614 371.929,26.614 C367.625,26.614 363.584,27.56 359.808,29.451 Z M272.195,31.168 C277.377,28.131 282.91,26.614 288.795,26.614 C294.592,26.614 300.059,28.198 305.198,31.366 C310.336,34.534 314.442,38.801 317.516,44.169 C320.59,49.538 322.128,55.345 322.128,61.593 C322.039,63.705 321.205,65.422 319.625,66.741 C318.043,68.061 316.198,68.721 314.09,68.721 L270.613,68.721 C271.667,73.913 274.083,77.983 277.859,80.931 C281.637,83.88 285.896,85.353 290.639,85.353 C294.24,85.353 297.051,85.024 299.071,84.363 C301.092,83.703 302.695,83 303.88,82.252 C305.066,81.504 305.878,80.997 306.317,80.733 C307.898,79.941 309.392,79.545 310.797,79.545 C312.641,79.545 314.223,80.205 315.54,81.525 C316.857,82.846 317.516,84.386 317.516,86.145 C317.516,88.521 316.286,90.678 313.827,92.613 C311.368,94.637 308.074,96.354 303.946,97.761 C299.817,99.169 295.646,99.874 291.429,99.874 C284.052,99.874 277.618,98.334 272.129,95.253 C266.639,92.173 262.401,87.927 259.415,82.515 C256.428,77.104 254.935,71.01 254.935,64.234 C254.935,56.666 256.517,50.022 259.678,44.301 C262.84,38.581 267.012,34.203 272.195,31.168 Z M288.795,41.133 C278.606,41.133 272.59,45.93 270.745,55.522 L305.263,55.522 L305.263,54.597 C304.912,50.901 303.111,47.733 299.861,45.093 C296.612,42.454 292.923,41.133 288.795,41.133 Z M90.512,31.299 C95.958,28.175 102.018,26.614 108.693,26.614 C115.281,26.614 121.32,28.175 126.809,31.299 C132.299,34.423 136.624,38.779 139.787,44.367 C142.948,49.955 144.53,56.27 144.53,63.309 C144.53,70.349 142.948,76.664 139.787,82.252 C136.624,87.84 132.299,92.173 126.809,95.253 C121.32,98.334 115.281,99.874 108.693,99.874 C102.018,99.874 95.958,98.334 90.512,95.253 C85.067,92.173 80.763,87.84 77.6,82.252 C74.439,76.664 72.857,70.349 72.857,63.309 C72.857,56.27 74.439,49.955 77.6,44.367 C80.763,38.779 85.067,34.423 90.512,31.299 Z M98.614,82.581 C101.645,84.43 105.004,85.353 108.693,85.353 C112.383,85.353 115.742,84.43 118.773,82.581 C121.803,80.733 124.217,78.138 126.018,74.793 C127.819,71.449 128.719,67.621 128.719,63.309 C128.719,58.997 127.819,55.147 126.018,51.76 C124.217,48.371 121.803,45.753 118.773,43.905 C115.742,42.058 112.383,41.133 108.693,41.133 C105.004,41.133 101.645,42.058 98.614,43.905 C95.584,45.753 93.168,48.371 91.368,51.76 C89.568,55.147 88.667,58.997 88.667,63.309 C88.667,67.621 89.568,71.449 91.368,74.793 C93.168,78.138 95.584,80.733 98.614,82.581 Z M233.987,29.188 C232.669,30.024 231.748,31.277 231.22,32.95 L217.123,70.966 L206.979,43.377 C206.276,41.706 205.419,40.474 204.409,39.682 C203.399,38.89 201.972,38.494 200.127,38.494 C196.702,38.494 194.286,40.122 192.881,43.377 L182.473,71.625 L168.244,32.95 C167.717,31.277 166.817,30.024 165.543,29.188 C164.269,28.352 162.755,27.933 160.998,27.933 C158.626,27.933 156.716,28.748 155.267,30.376 C153.818,32.004 153.093,33.917 153.093,36.118 C153.093,37.173 153.269,38.185 153.62,39.153 L173.778,93.538 C174.304,95.122 175.248,96.375 176.61,97.3 C177.972,98.223 179.442,98.686 181.024,98.686 L182.078,98.553 C185.064,98.377 187.304,96.706 188.797,93.538 L199.468,61.066 L210.667,93.538 C212.161,96.706 214.4,98.377 217.386,98.553 L218.44,98.686 C220.022,98.686 221.493,98.223 222.854,97.3 C224.216,96.375 225.16,95.122 225.687,93.538 L245.844,39.153 C246.195,37.921 246.372,36.91 246.372,36.118 C246.372,33.742 245.647,31.783 244.197,30.243 C242.748,28.703 240.97,27.933 238.862,27.933 C236.929,27.933 235.305,28.352 233.987,29.188 Z" id="path-1"></path>
    </defs>
    <g id="Identity" stroke="none" stroke-width="1" fill="none" fill-rule="evenodd">
        <g id="Power-Pack">
            <path d="M478.0572,64.1966 C476.2972,55.1666 467.5492,49.2736 458.5192,51.0336 L458.0662,51.1216 L433.1522,55.9796 L459.6162,11.3476 C461.5272,8.1346 460.7882,3.9266 457.7582,1.5766 C454.4782,-0.9664 449.7582,-0.3694 447.2152,2.9106 L397.9182,66.4776 C396.3342,68.5206 395.3852,70.9096 395.3852,73.6946 C395.3842,80.3626 400.7892,85.5896 407.4572,85.5896 L409.4532,85.5896 L431.3112,85.7746 L408.3832,130.6126 C406.8432,133.6186 407.4662,137.4466 410.1182,139.7796 C413.2532,142.5356 418.0282,142.2526 420.7852,139.1176 L474.2162,78.3736 C477.4652,74.6346 479.0782,69.4356 478.0572,64.1966" id="bolt" fill="#5DF35C"></path>
            <g id="logo" transform="translate(0.000000, 17.672000)">
                <mask id="mask-2" fill="white">
                    <use xlink:href="#path-1"></use>
                </mask>
                <g id="Clip-4"></g>
                <polygon id="Fill-3" fill="#FFFFFF" mask="url(#mask-2)" points="-5 104.873 798 104.873 798 -4.127 -5 -4.127"></polygon>
            </g>
        </g>
    </g>
</svg>