<?xml version="1.0" encoding="UTF-8"?>
<svg width="2375px" height="1781px" viewBox="0 0 2375 1781" version="1.1" xmlns="http://www.w3.org/2000/svg" xmlns:xlink="http://www.w3.org/1999/xlink">
    <!-- Generator: Sketch 43.2 (39069) - http://www.bohemiancoding.com/sketch -->
    <title>icon-switch</title>
    <desc>Created with Sketch.</desc>
    <defs></defs>
    <g id="Page-1" stroke="none" stroke-width="1" fill="none" fill-rule="evenodd">
        <g id="icon-switch">
            <rect id="Rectangle-4-Copy" fill="#FFFFFF" fill-rule="nonzero" x="0" y="0" width="2375" height="1781"></rect>
            <g id="Group" stroke-linecap="round" stroke-linejoin="round" transform="translate(1086.000000, 1062.000000) rotate(2.000000) translate(-1086.000000, -1062.000000) translate(302.000000, 833.000000)" stroke="#6E6E6E" stroke-width="40">
                <path d="M124.5,12 C124.5,12 62,286 124.5,433.953686 C386,514 1568,365 1568,365" id="Line"></path>
                <polyline id="Path-2" transform="translate(98.500000, 82.500000) rotate(-8.000000) translate(-98.500000, -82.500000) " points="9 79 135 12 188 153"></polyline>
            </g>
            <g id="Group-Copy" stroke-linecap="round" stroke-linejoin="round" transform="translate(1329.000000, 702.000000) rotate(-178.000000) translate(-1329.000000, -702.000000) translate(586.000000, 472.000000)" stroke="#6E6E6E" stroke-width="40">
                <path d="M124.5,12 C124.5,12 62,286 124.5,433.953686 C386,514 1486,378 1486,378" id="Line"></path>
                <polyline id="Path-2" transform="translate(98.500000, 82.500000) rotate(-8.000000) translate(-98.500000, -82.500000) " points="9 79 135 12 188 153"></polyline>
            </g>
            <g id="Shape-Copy-3" transform="translate(794.000000, 249.000000)">
                <g id="path-1-link" transform="translate(24.000000, 24.000000)" fill="#117E80">
                    <path d="M27.52976,1235 C22.229983,1235 16.888909,1233.44839 12.222352,1230.27529 C1.251125,1222.82478 -2.974932,1208.49688 2.187189,1196.15392 L214.75644,686.010798 L92.613778,686.010798 C81.491129,686.010798 71.469732,679.231255 67.202379,668.80334 C62.92126,658.389403 65.247656,646.381924 73.080314,638.3583 L688.91443,8.266196 C698.22001,-1.239142 712.86667,-2.734835 723.82413,4.757608 C734.78159,12.236073 738.96635,26.563973 733.80423,38.892956 L521.31758,546.22641 L643.39141,546.22641 C654.50029,546.22641 664.50792,553.005953 668.80281,563.405912 C673.08393,573.819849 670.78506,585.813349 662.97994,593.836973 L47.118288,1226.71079 C41.790979,1232.17636 34.687901,1235 27.52976,1235 Z" id="path-1"></path>
                </g>
                <path d="M580.63803,546.72641 L779.47985,71.971363 C788.94068,49.375534 781.27057,23.133233 761.07158,9.347425 C740.71058,-4.574933 713.39419,-1.81648 696.12191,15.826572 L80.274245,645.932526 C65.871478,660.686436 61.624682,682.661078 69.467323,701.738515 C77.31905,720.925462 95.909687,733.510798 116.613778,733.510798 L203.505824,733.510798 L4.495027,1211.11511 C-4.953962,1233.70819 2.775842,1259.96846 23.020097,1273.71624 C31.50057,1279.48268 41.427248,1282.5 51.52976,1282.5 C65.146943,1282.5 78.278531,1277.03276 87.946787,1267.11358 L703.82177,634.226079 C718.17157,619.474562 722.37276,597.529326 714.53786,578.470736 C706.61241,559.279372 688.05517,546.72641 667.39141,546.72641 L580.63803,546.72641 Z" id="Shape" stroke="#FFFFFF" stroke-width="47"></path>
            </g>
        </g>
    </g>
</svg>