<?xml version="1.0" encoding="UTF-8"?>
<svg width="2375px" height="1781px" viewBox="0 0 2375 1781" version="1.1" xmlns="http://www.w3.org/2000/svg" xmlns:xlink="http://www.w3.org/1999/xlink">
    <!-- Generator: Sketch 43.2 (39069) - http://www.bohemiancoding.com/sketch -->
    <title>benefit</title>
    <desc>Created with Sketch.</desc>
    <defs>
        <path d="M358,79.0004495 C358,51.3859638 380.371501,28.2036035 407.968463,27.2211874 L926.031537,8.77881258 C953.628357,7.79640152 975.395951,29.3875708 974.651358,56.9840469 L961.348642,550.015953 C960.603808,577.62138 937.612675,600 909.998875,600 L408.001125,600 C380.386266,600 358,577.616123 358,549.99955 L358,79.0004495 Z" id="path-1"></path>
    </defs>
    <g id="Collective-switch" stroke="none" stroke-width="1" fill="none" fill-rule="evenodd">
        <g id="benefit">
            <rect id="Rectangle-4-Copy-2" fill="#FFFFFF" x="0" y="0" width="2375" height="1781"></rect>
            <g id="sparks-copy" transform="translate(192.000000, 29.000000)" fill-rule="nonzero">
                <path d="M971.449935,360 L968.449935,360 C967.907935,363.568 965.050935,366.447 965.001935,370.015 C964.871935,379.668 971.318935,385.018 976.052935,392.41 C978.609935,396.402 981.151935,401.61 985.574935,403.972 C988.830935,405.711 992.858935,403.876 996.449935,405 C999.267935,400.654 1003.92994,402.403 1008.44994,402.625 C1012.99494,402.848 1017.55094,401.675 1020.96994,398.606 C1029.16994,391.248 1029.31994,378.97 1029.95994,369 C1030.54994,359.923 1032.71994,351.098 1033.35994,342 C1033.54994,339.329 1033.31994,336.615 1034.01994,334 C1034.86994,330.836 1038.08994,327.668 1035.44994,325 C1036.62994,320.044 1036.16994,314.919 1037.53994,310.001 C1039.65994,302.419 1043.33994,300.095 1040.44994,292 C1043.19994,290.242 1043.59994,288.109 1044.44994,285 C1042.95994,281.529 1045.09994,278.723 1045.13994,275.089 C1045.15994,272.631 1043.89994,270.449 1044.01994,267.961 C1044.33994,261.055 1046.54994,253.066 1048.69994,246.576 C1049.99994,242.649 1047.74994,238.553 1051.44994,236 C1048.71994,222.633 1053.76994,208.656 1055.10994,195 C1055.73994,188.593 1055.46994,179.247 1059.44994,174 C1058.28994,166.961 1059.95994,160.65 1061.18994,153.83 C1062.62994,145.844 1063.18994,137.13 1064.15994,129 C1067.38994,102.144 1071.20994,75.1364 1068.61994,48 C1067.96994,41.2263 1066.23994,35.6033 1064.80994,29 C1063.78994,24.3037 1063.56994,19.5959 1060.87994,15.439 C1056.29994,8.3802 1048.98994,1.7943 1040.44994,0.3641 C1036.09994,-0.36353 1031.77994,0.6329 1027.44994,0.7416 C1021.41994,0.8928 1015.56994,-0.69873 1012.37394,6.0193 C1009.45494,12.1531 1010.93494,19.493 1010.16394,26 C1008.49894,40.0676 1007.93394,54.9061 1008.55394,69 C1009.03894,80.0206 1010.31294,90.929 1008.51194,101.961 C1006.29294,115.552 1003.12194,129.251 1001.57894,143 C1000.35494,153.904 1000.44694,165.061 999.275935,176 C998.197935,186.076 995.779935,196.12 994.578935,206.089 C993.003935,219.16 991.900935,231.932 989.859935,245 C987.092935,262.714 983.070935,280.371 980.668935,298.089 C979.224935,308.744 978.926935,319.42 977.190935,330 C976.224935,335.883 975.366935,342.062 974.190935,347.911 C973.327935,352.2 971.546935,355.47 971.449935,360 L971.449935,360 Z M806,215.711705 C802.031,214.855705 798.052,214.802705 794,214.711705 L794,218.711705 L786,218.711705 C784.972,225.210705 778.186,228.494705 776,234.711705 C778.932,238.581705 777.171,243.358705 779.313,247.622705 C781.759,252.491705 784.761,256.529705 786.456,261.881705 C792.643,281.415705 793.643,302.644705 798.116,322.711705 C800.437,333.127705 802.702,346.620705 809.14,355.412705 C810.464,357.220705 812.532,358.205705 813.955,359.920705 C817.232,363.869705 818.175,369.342705 824.004,370.418705 C830.839,371.680705 833.518,367.164705 837.421,362.711705 C842.133,357.335705 846.698,350.659705 848.393,343.622705 C849.023,341.004705 848.076,338.426705 848.349,335.800705 C848.863,330.845705 850.092,328.654705 848,323.711705 L850,323.711705 C847.04,307.778705 845.199,290.917705 844.089,274.711705 C843.236,262.250705 843.847,249.121705 840.775,236.885705 C839.746,232.783705 837.396,228.881705 836.142,224.750705 C833.379,215.649705 823.743,215.382705 816,214.032705 C811.884,213.315705 808.601,211.703705 806,215.711705 L806,215.711705 Z M1162.2984,396.369016 L1167.2984,396.369016 C1169.1484,401.638016 1173.7784,399.578016 1178.2984,400.053016 C1187.7484,401.044016 1196.9884,399.833016 1206.2984,397.369016 C1206.9684,391.371016 1211.5584,387.670016 1212.1184,381.369016 C1213.4284,366.447016 1212.5084,350.434016 1211.7584,335.539016 C1211.6284,333.076016 1210.4584,330.853016 1210.3884,328.354016 C1210.1884,320.313016 1211.6884,312.228016 1212.2484,304.330016 C1212.7684,297.007016 1211.8684,289.671016 1211.8684,282.369016 C1211.8684,276.036016 1212.6484,269.725016 1212.2084,263.369016 C1211.5184,253.230016 1211.8184,241.152016 1209.2384,231.369016 C1208.1384,227.228016 1207.6584,222.885016 1203.2984,221.369016 C1203.2984,218.693016 1204.0584,214.352016 1202.2684,212.111016 C1200.9284,210.422016 1198.4084,210.464016 1196.6684,209.361016 C1194.6584,208.080016 1193.4884,205.881016 1191.1984,204.972016 C1188.4384,203.883016 1185.1884,204.645016 1182.2984,204.218016 C1178.9884,203.728016 1175.7084,201.978016 1172.3384,202.107016 C1167.4484,202.293016 1159.5584,208.110016 1157.5784,212.499016 C1150.1884,228.885016 1151.7184,248.982016 1151.6084,266.369016 C1151.4784,289.407016 1149.9684,312.396016 1149.9584,335.369016 C1149.9584,339.395016 1148.6384,343.343016 1148.6384,347.369016 C1148.6384,350.743016 1149.6384,353.968016 1149.2684,357.369016 C1148.5284,364.203016 1147.1184,369.440016 1148.7684,376.369016 C1150.7984,384.896016 1159.9984,388.688016 1162.2984,396.369016 L1162.2984,396.369016 Z M922.33,262.667 C922.28,262.722 922.22,263.778 922.67,263.333 C922.72,263.278 922.78,262.222 922.33,262.667 L922.33,262.667 Z M1760,464 C1756.07,464.845 1757,469.419 1755.42,472.778 C1750.97,482.22 1756.78,490.847 1762.61,498.194 C1765.72,502.111 1766.6,504.886 1772,505 C1773.48,509.671 1777.84,509.737 1781,513 C1789,511.51 1796.32,511.786 1803.56,507.536 C1807.56,505.191 1813.33,501.154 1816.22,497.526 C1820.2,492.529 1822.15,485.433 1825.75,480.039 C1830.24,473.307 1836.42,467.738 1841.59,461.576 C1846.28,455.972 1850.09,449.619 1855.32,444.325 C1859.25,440.353 1864.62,438.511 1868.54,434.762 C1878.34,425.396 1887.97,415.317 1898.17,406.375 C1905.84,399.65 1914.62,394.087 1922.28,387.531 C1925.25,384.987 1927.5,381.637 1930.48,379.051 C1938.75,371.866 1949.27,364.955 1956.24,356.559 C1964.17,347.013 1973.4,338.726 1981.38,329.159 C1983.84,326.206 1987.99,323.82 1989.2,320 C1990.3,316.556 1987.17,312.603 1987.02,308.999 C1986.75,302.562 1986.03,292.27 1979.74,288.457 C1975.36,285.804 1969.58,287.857 1965,288.845 C1951.75,291.705 1937.73,300.411 1926.83,308.461 C1897.25,330.308 1869.97,355.034 1842,378.882 C1833.33,386.275 1823.5,392.628 1815.13,400.442 C1809.48,405.72 1804.38,411.636 1799.04,417.242 C1788.88,427.924 1778.91,438.292 1769.02,449.157 C1765.1,453.457 1759.06,457.718 1760,464 L1760,464 Z M31,339 C27.067,338.256 22.851,336.41 18.91,336.172 C11.988,335.754 5.45,340.406 0,344 C1.783,353.603 2.079,363.23 7.415,371.911 C10.094,376.269 14.735,379.299 18.275,382.911 C25.235,390.01 31.848,397.538 38.265,405.13 C56.232,426.386 73.509,448.311 91.47,469.464 C97.849,476.976 104.616,484.459 110.691,492.108 C114.88,497.381 117.699,503.929 124,507 L123,511 C129.488,515.281 136.825,525.247 138,533 L142,533 C142.129,539.12 146.449,542.355 149.583,547.222 C153.882,553.898 158.49,560.494 162.75,567.222 C164.262,569.609 164.615,572.249 166.583,574.417 C169.891,578.059 172.163,581.787 174.694,586 C175.598,587.504 176.023,590.183 177.472,591.25 C179.386,592.659 179.76,590.143 180,589 C185.334,593.862 189.701,592.348 196,590 C198.422,593.309 203.365,588.45 206.134,586.833 C209.791,584.698 215.364,583.886 218.528,581.134 C221.283,578.738 221.946,572.415 222,569 C224.172,568.536 225.958,567.895 228,567 C226.786,559.846 226.075,550.726 222.697,544.286 C220.206,539.538 215.553,535.724 212.21,531.576 C207.796,526.098 203.884,519.69 199.947,513.83 C183.742,489.715 169.23,464.238 150.32,442.17 C137.737,427.485 123.753,413.492 110.625,399.282 C102.348,390.322 94.632,381.928 89,371 C81.962,370.684 77.517,361.156 73.045,356.495 C71.355,354.734 68.996,353.965 67.086,352.495 C60.888,347.724 55.224,342.802 48.7,338.384 C44.343,335.434 33.169,332.836 31,339 L31,339 Z M1687.47822,260.083187 C1681.13822,275.042187 1664.11822,285.792187 1653.48822,297.698187 C1647.71822,304.170187 1641.77822,312.802187 1633.47822,316.083187 C1631.30822,323.895187 1623.47822,330.103187 1617.76822,335.507187 C1615.05822,338.071187 1612.91822,340.555187 1609.47822,342.083187 L1609.47822,347.083187 C1605.08822,348.331187 1603.17822,350.580187 1602.47822,355.083187 C1596.61822,356.057187 1594.95822,362.216187 1588.47822,363.083187 C1585.47822,369.220187 1577.36822,369.842187 1575.47822,376.083187 L1570.47822,376.083187 C1568.68822,384.720187 1564.14822,397.975187 1569.47822,406.083187 C1567.84822,408.083187 1567.13822,409.585187 1566.47822,412.083187 C1569.50822,415.719187 1572.29822,417.244187 1575.74822,420.342187 C1579.93822,424.098187 1581.52822,427.052187 1587.47822,428.083187 L1586.47822,433.083187 C1594.37822,434.081187 1603.51822,434.609187 1611.05822,431.279187 C1625.27822,424.990187 1632.85822,409.133187 1643.18822,398.318187 C1652.53822,388.522187 1660.68822,377.588187 1669.70822,367.510187 C1673.45822,363.326187 1678.22822,360.533187 1682.04822,356.613187 C1684.51822,354.080187 1685.55822,350.477187 1687.95822,347.798187 C1696.44822,338.334187 1706.16822,329.975187 1714.78822,320.652187 C1718.89822,316.201187 1722.32822,310.723187 1726.18822,305.992187 C1731.96822,298.916187 1737.57822,291.732187 1743.32822,284.698187 C1747.97822,279.002187 1752.29822,273.692187 1753.67822,266.084187 C1754.83822,259.720187 1749.64822,254.048187 1748.47822,248.083187 C1742.03822,246.771187 1743.17822,242.356187 1738.88822,239.111187 C1735.86822,236.820187 1727.25822,235.894187 1723.51822,236.138187 C1707.11822,237.205187 1701.91822,256.169187 1687.47822,260.083187 Z" id="Shape" fill="#736F66"></path>
                <path d="M43.667,408.333 C43.222,408.778 44.278,408.722 44.333,408.667 C44.778,408.222 43.722,408.278 43.667,408.333 Z" id="Shape" fill="#D3D1CB"></path>
                <path d="M1861,560 C1858.47,568.635 1847.69,571.891 1840,574.322 C1833.57,576.354 1827.66,579.148 1821,580.667 C1817.68,581.425 1814.35,580.867 1811.04,581.492 C1804.25,582.773 1796.96,589.47 1794.78,596.001 C1793.2,600.717 1793.53,608.005 1794.13,612.911 C1794.91,619.322 1799.35,623.539 1802,629 L1806,629 L1805,633 C1814.3,638.927 1825.9,643.058 1837,640.702 C1842.97,639.435 1848.33,635.957 1854,633.884 C1856.18,633.086 1858.56,633.23 1860.71,632.417 C1864.69,630.918 1868.4,628.056 1872.17,626.076 C1884.5,619.597 1896.13,612.187 1908.09,605.005 C1915.66,600.455 1922.65,594.483 1930.18,590.134 C1934.72,587.513 1940.3,586.418 1942,581 C1947.06,580.212 1950.55,576.449 1955.04,574.178 C1969.17,567.027 1985.22,558.178 1991.06,542.576 C1992.35,539.112 1990.11,535.407 1989.47,532 C1988.94,529.177 1989.33,526.094 1988.1,523.44 C1984.51,515.668 1975.99,512.562 1968,512.055 C1958.57,511.456 1951.06,515.843 1942.71,519.38 C1924.9,526.928 1907.44,536.742 1890.91,546.63 C1881.59,552.203 1872.72,561.664 1861,560 L1861,560 Z M49,546 C46.648,545.41 44.424,545.195 42,545 L44,550 L40,550 C38.68,553.703 38.106,556.096 39,560 L35,561 C35,565.431 32.016,573.822 34.319,577.509 C37.366,582.388 43.895,585.622 48.83,588.069 C56.101,591.675 63.797,595.312 70.83,599.325 C87.061,608.584 99.37,623.846 116.209,632.026 C125.293,636.439 131.763,632.4 140.961,632.313 C146.097,632.265 152.638,635.723 155,629 L159,629 C158.651,625.727 159.27,622.208 158.512,619.015 C157.808,616.047 155.735,613.724 154.669,610.911 C152.548,605.312 151.196,599.351 147.901,594.261 C144.248,588.617 138.599,583.863 133.834,579.204 C130.965,576.4 128.931,572.881 125.964,570.126 C116.308,561.16 104.722,553.464 94.545,545.051 C90.295,541.537 84.857,539.447 80.09,536.759 C78.029,535.598 76.258,533.889 73.911,533.314 C64.945,531.117 52.16,537.802 49,546 Z" id="Shape" fill="#736F66"></path>
                <path d="M223,555 L223,558 C223.696,556.446 223.696,556.554 223,555 Z" id="Shape" fill="#D3D1CB"></path>
                <path d="M1397,798 L1397,800 C1398.63,799.455 1398.45,799.635 1399,798 L1397,798 Z" id="Shape" fill="#D3D1CB"></path>
                <polygon id="Shape" fill="#D3D1CB" points="1354 814 1354 816 1356 816 1356 814"></polygon>
                <polygon id="Shape" fill="#252525" points="1054 864 1054 866 1057 866 1057 864"></polygon>
                <path d="M177,1190 L178,1194 C173.91,1194.59 171.653,1197.13 168.195,1199.17 C160.627,1203.65 154.16,1208.76 146.914,1213.6 C140.548,1217.84 134.447,1223.1 127.83,1226.88 C120.546,1231.04 112.717,1234.16 105.836,1239.28 C103.002,1241.39 100.865,1244.53 98.157,1246.84 C90.769,1253.13 82.989,1258.62 75,1264 C75.472,1265.42 75.814,1265.81 77,1267 L70,1268 L71,1273 C64.655,1274.77 54.036,1284.42 53,1291 L49,1291 C47.58,1296.21 43.391,1299.43 43,1305 C38.728,1306.41 32.67,1315.17 35.198,1319.71 C38.95,1326.45 50.914,1330.89 57.914,1332.25 C60.41,1332.74 62.478,1333.94 65.039,1333.01 C69.378,1331.44 73.267,1328.25 77.576,1326.42 C86.598,1322.59 96.307,1319.4 104.675,1313.88 C118.278,1304.9 130.675,1293.44 144.576,1284.8 C146.765,1283.44 149.42,1283.34 151.546,1281.98 C153.606,1280.66 154.824,1278.47 157.054,1277.32 C159.422,1276.09 162.188,1276.24 164.575,1275.08 C168.132,1273.35 170.725,1270.15 174.09,1268.13 C176.834,1266.49 179.977,1266.09 182.83,1264.74 C189.424,1261.62 196.479,1257.73 204,1258 C210.369,1252.01 219.515,1254.08 221,1243 C225.527,1241.63 226.157,1238.46 226.714,1234 C227.836,1225.02 223.095,1218.63 223,1210 C217.924,1208.24 212.622,1203.48 208.764,1199.71 C206.731,1197.73 205.594,1195.35 202.87,1194.14 C194.477,1190.41 185.234,1193.74 177,1190 L177,1190 Z M1830,1300 L1824,1312 C1825.48,1312.99 1825.2,1313 1827,1313 L1827,1316 C1824.45,1317.63 1824.22,1318.99 1824,1322 L1827,1321 C1828.52,1330.47 1839.95,1331.02 1845.92,1336.39 C1851.57,1341.47 1857.78,1345.27 1863.64,1350.08 C1865.38,1351.51 1866.45,1353.86 1868.31,1355.06 C1870.58,1356.53 1873.46,1355.7 1875.78,1357.25 C1878.26,1358.91 1879.88,1361.67 1882.39,1363.33 C1885.5,1365.39 1888.76,1367.05 1891.78,1369.33 C1893.93,1370.96 1896.6,1373.91 1899.22,1374.64 C1902.21,1375.46 1904.86,1372.72 1907.92,1373.33 C1910.89,1373.93 1912.67,1376.11 1916,1375.75 C1924.42,1374.83 1924.73,1367.51 1926.42,1361 C1927.31,1357.55 1931.41,1353.16 1926,1352 C1927.51,1346.26 1927.75,1340.67 1926,1335 L1923,1335 C1923.89,1331.01 1922.94,1329.2 1919,1328 C1918.82,1322.55 1915.9,1321.03 1913,1316.82 C1907.4,1308.68 1899.43,1303 1892.04,1296.71 C1889.88,1294.86 1888.34,1292.59 1886,1291 C1886.99,1289.52 1887,1289.8 1887,1288 C1883.23,1286.05 1880.36,1282.66 1876.58,1280.85 C1872.06,1278.7 1866.77,1279.44 1862,1279.54 C1859.01,1279.61 1855.9,1278.56 1853.09,1280.03 C1850.64,1281.31 1849.03,1283.82 1846.91,1285.53 C1844.67,1287.34 1841.83,1288.39 1839.9,1290.57 C1836.23,1294.72 1836.29,1299.02 1830,1300 L1830,1300 Z M301.601252,1264 L295.601252,1263 L295.601252,1269 C291.821252,1269.48 288.948252,1270.24 287.601252,1274 C282.570252,1274.84 281.894252,1279 279.311252,1282.92 C276.576252,1287.07 273.075252,1291.41 269.515252,1294.87 C258.924252,1305.15 247.680252,1315.11 236.562252,1324.83 C231.027252,1329.67 225.100252,1333.58 219.891252,1338.88 C214.685252,1344.18 207.674252,1347.4 205.601252,1355 C198.891252,1355.74 194.826252,1361.35 190.319252,1365.95 C186.520252,1369.82 182.274252,1373.22 178.408252,1377.01 C175.522252,1379.85 173.547252,1382.8 169.601252,1384 C167.838252,1387.64 164.751252,1390.07 163.601252,1394 L159.601252,1394 C156.433252,1402.62 150.277252,1407.75 143.926252,1414.08 C139.954252,1418.04 136.775252,1422.59 131.601252,1425 C130.478252,1428.65 127.353252,1429.85 125.752252,1433.09 C124.880252,1434.86 125.876252,1436.81 125.028252,1438.56 C123.946252,1440.79 121.356252,1442.14 119.960252,1444.21 C115.986252,1450.1 111.831252,1458.27 105.601252,1462 L106.601252,1468 C103.699252,1469.61 102.534252,1470.81 101.601252,1474 C105.307252,1473.66 108.175252,1472.3 111.601252,1471 C113.555252,1476.6 119.580252,1480.66 114.601252,1486 C117.462252,1489.25 120.436252,1488.75 122.601252,1485 C124.080252,1485.99 123.804252,1486 125.601252,1486 C131.602252,1479.97 138.329252,1478.75 145.600252,1474.88 C154.562252,1470.11 162.621252,1463.59 172.601252,1461 C176.349252,1451.35 188.398252,1445.41 196.377252,1439.57 C201.377252,1435.9 205.991252,1430.15 210.467252,1425.75 C214.957252,1421.34 219.204252,1416.3 225.601252,1415 C226.867252,1406.89 236.737252,1404.45 241.935252,1398.89 C247.083252,1393.38 253.192252,1389.69 258.728252,1384.74 C269.053252,1375.52 278.796252,1366.16 290.446252,1358.26 C295.260252,1354.99 299.278252,1348.58 304.601252,1347 C306.293252,1344 308.796252,1342.75 311.343252,1340.49 C316.599252,1335.82 321.917252,1330.54 327.771252,1326.58 C330.091252,1325.01 332.978252,1324.88 335.323252,1323.39 C338.474252,1321.4 340.612252,1316.44 341.601252,1313 L346.601252,1313 C348.645252,1307.25 351.866252,1300.39 351.202252,1294.08 C350.859252,1290.83 348.520252,1287.05 347.303252,1284 C345.318252,1279.03 343.227252,1274.93 337.601252,1274 C335.543252,1264.5 320.475252,1263.46 312.771252,1261.54 C309.274252,1260.68 306.111252,1258.83 302.601252,1258 L301.601252,1264 Z M1665.60125,1236.03959 C1664.39125,1239.95959 1661.20125,1241.21959 1659.03125,1244.50959 C1657.52125,1246.79959 1657.63125,1249.40959 1657.60125,1252.03959 C1653.44125,1253.24959 1652.69125,1255.56959 1650.60125,1259.03959 L1651.60125,1262.03959 C1650.12125,1261.04959 1650.40125,1261.03959 1648.60125,1261.03959 C1648.18125,1263.72959 1647.88125,1264.58959 1645.60125,1266.03959 C1646.51125,1269.32959 1647.88125,1272.09959 1649.60125,1275.03959 L1645.60125,1276.03959 C1646.23125,1280.45959 1648.07125,1283.27959 1652.60125,1284.03959 C1654.15125,1288.44959 1658.06125,1290.68959 1662.60125,1291.03959 C1663.80125,1294.89959 1666.61125,1296.07959 1669.56125,1298.63959 C1675.53125,1303.80959 1685.42125,1311.33959 1687.60125,1319.03959 C1693.05125,1321.21959 1695.23125,1325.30959 1695.60125,1331.03959 C1702.81125,1333.37959 1709.30125,1337.67959 1713.72125,1343.94959 C1717.84125,1349.79959 1720.93125,1358.84959 1728.60125,1360.03959 C1729.40125,1364.80959 1732.96125,1366.71959 1736.27125,1369.94959 C1740.48125,1374.02959 1743.80125,1378.74959 1748.20125,1382.67959 C1754.47125,1388.27959 1759.22125,1395.38959 1765.86125,1400.64959 C1774.68125,1407.64959 1784.98125,1413.37959 1794.30125,1419.82959 C1801.03125,1424.48959 1804.40125,1429.44959 1812.60125,1432.03959 C1815.68125,1428.61959 1822.65125,1428.67959 1823.45125,1423.97959 C1824.56125,1417.45959 1822.61125,1410.17959 1820.58125,1404.03959 C1819.21125,1399.91959 1817.43125,1395.74959 1821.60125,1393.03959 C1818.15125,1379.26959 1805.29125,1371.48959 1798.69125,1359.61959 C1795.45125,1353.77959 1791.20125,1342.39959 1784.60125,1340.03959 C1783.88125,1335.86959 1780.72125,1334.55959 1778.07125,1331.49959 C1771.88125,1324.33959 1764.33125,1317.21959 1758.90125,1309.53959 C1755.84125,1305.20959 1753.98125,1298.95959 1748.60125,1297.03959 C1747.92125,1292.58959 1745.03125,1290.55959 1742.62125,1286.94959 C1739.62125,1282.45959 1738.49125,1276.04959 1732.60125,1275.03959 C1731.19125,1265.67959 1723.02125,1260.70959 1717.34125,1253.77959 C1713.41125,1248.97959 1710.19125,1243.09959 1703.60125,1242.03959 C1703.37125,1237.03959 1698.18125,1235.54959 1693.60125,1235.20959 C1684.08125,1234.48959 1675.13125,1235.83959 1665.60125,1236.03959 L1665.60125,1236.03959 Z M908,1378 C901.71,1375.75 895.136,1375.23 893,1383 C891.122,1383.18 889.8,1383.44 888,1384 L889,1388 C885.007,1388.64 883.636,1390.01 883,1394 C887.749,1396.84 883.786,1400.33 884.303,1404.83 C884.793,1409.09 887.404,1412.94 888.447,1417.04 C889.46,1421.02 888.734,1425.05 888,1429 C891.872,1431.51 890.548,1434.88 890.455,1439 C890.325,1444.8 890.178,1451.23 890.513,1457 C891.019,1465.72 889.155,1474.35 888.18,1483 C885.836,1503.8 882.409,1524.31 879.718,1545 C878.713,1552.73 877.096,1560.24 877.675,1568 C877.902,1571.03 876.71,1573.82 879,1576 L879,1578 C874.473,1581.81 875.098,1594.22 874.084,1600 C871.74,1613.36 872.284,1626.67 872.126,1640 C872.011,1649.72 869.08,1659.31 869,1669 L872,1669 L872,1693 L875,1691 C870.652,1707.43 874.107,1724.32 872,1741 C876.778,1738.73 879.423,1735.66 885,1737 L885,1735 L887,1735 L888,1739 C891.061,1737.94 892.099,1735.8 894.234,1733.42 C896.971,1730.37 900.17,1727.38 902.1,1723.71 C903.54,1721 903.67,1717.82 904.85,1715 C906.64,1710.75 910.81,1707.97 912.44,1703.71 C917.3,1690.99 918.86,1677.13 925,1665 C921.26,1662.52 923.76,1653.64 923,1649 C927.46,1648.04 926.24,1640.03 927.31,1636 C931.18,1621.3 929.01,1605 932,1590 C934.05,1579.7 933.3,1569.26 935.11,1559.03 C935.43,1557.21 936.57,1555.73 936.89,1553.92 C937.58,1549.96 936.87,1546 938.28,1542.08 C939.06,1539.9 940.58,1538.38 940.92,1536 C942.26,1526.45 942.13,1516.6 943.08,1507 C943.67,1501.13 945.99,1495.71 946.89,1490 C947.71,1484.75 946.94,1479.19 947.72,1474 C948.09,1471.55 949.5,1469.44 949.89,1467 C951.79,1454.92 949.87,1442.46 952.69,1430.78 C953.54,1427.27 951.24,1421.77 951.03,1418 C950.46,1407.86 954.23,1384.9 940,1382 L940,1377 L933,1378 L933,1375 C930.32,1375.14 927.68,1375.94 925,1375.94 C920.41,1375.94 909.43,1371.32 908,1378 L908,1378 Z M1170,1407 C1168.24,1408.73 1167.36,1409.34 1165,1410 C1162.83,1417.84 1155.79,1426.81 1162,1435 C1159.45,1439.13 1163.43,1441.24 1165.28,1445.01 C1166.95,1448.45 1167.37,1452.29 1169.58,1455.48 C1173.26,1460.78 1177.65,1463.41 1179.64,1470 C1183.35,1482.28 1190.95,1493.03 1195.25,1505 C1200.32,1519.11 1203.92,1533.85 1208.94,1548 C1215.2,1565.64 1222.38,1583.2 1228,1601 C1234.91,1602.79 1235.98,1610.48 1242.09,1613.14 C1248.29,1615.84 1257.32,1611.01 1264,1611 C1265.11,1606.71 1266.95,1603.59 1267,1599 L1271,1599 C1272.9,1588.76 1274.03,1577.35 1272.46,1567 C1271.38,1559.88 1267.73,1552.88 1265.68,1546 C1263.11,1537.34 1261.1,1527.92 1259.39,1519 C1258.01,1511.82 1254.37,1504.33 1255,1497 C1248.41,1490.79 1247.38,1478.5 1244.83,1470.04 C1240.31,1455.01 1233.74,1439.94 1226.05,1426.29 C1224.39,1423.34 1224.09,1420 1222.55,1417.04 C1218.63,1409.53 1210.76,1405.77 1203,1404 C1201.78,1405.2 1201.58,1405.32 1200,1406 C1200,1404.2 1199.99,1404.48 1199,1403 C1193.2,1405.11 1188.06,1404.41 1182.09,1405.13 C1177.81,1405.65 1174.46,1407.25 1170,1407 L1170,1407 Z M396,1433 C393.572,1430.03 393.105,1427.68 389,1427 L389,1422 C387.151,1420.91 386.093,1419.14 384.315,1418.04 C382.46,1416.9 380.04,1417.27 378.039,1416.42 C368.098,1412.19 357.634,1408.07 347.054,1413.1 C343.879,1414.61 342.475,1417.22 340.294,1419.8 C333.831,1427.44 329.987,1436.55 324.62,1444.91 C318.65,1454.21 313.501,1463.9 306.946,1472.99 C304.377,1476.55 300.743,1479.08 298.144,1482.59 C296.02,1485.46 295.079,1488.99 293.096,1491.96 C286.599,1501.69 280.187,1510 275.736,1520.96 C271.978,1530.22 266.765,1539.43 268.704,1549.99 C269.734,1555.59 275.69,1557.83 279.755,1560.82 C281.6,1562.17 282.909,1564.14 285.129,1564.95 C288.44,1566.17 291.719,1564.6 295,1564.09 C313.94,1561.16 322.701,1546.91 333.87,1533.09 C338.975,1526.77 342.883,1519.45 348.169,1513.39 C354.17,1506.5 360.969,1500.46 366.974,1493.54 C373.242,1486.31 378.789,1478.47 385.035,1471.3 C389.466,1466.22 395.975,1459.53 397.701,1452.83 C399.62,1445.38 394.943,1440.04 396,1433 L396,1433 Z M1025.87369,1481 C1021.32369,1482.83 1019.98369,1489.44 1018.87369,1494 L1022.87369,1495 C1022.12369,1495.52 1020.93369,1496.12 1020.28369,1496.87 C1014.92369,1503.12 1024.01369,1506.1 1024.81369,1511.9 C1025.39369,1516.05 1018.35369,1518.64 1024.06369,1522.4 C1024.82369,1522.9 1026.08369,1522.87 1026.87369,1523 C1026.20369,1526.54 1026.84369,1528.03 1029.87369,1530 C1025.78369,1547.2 1029.22369,1566.43 1027.63369,1584 C1027.20369,1588.67 1026.29369,1600.88 1029.87369,1604 L1027.87369,1616 C1033.02369,1619.23 1033.33369,1626.44 1032.87369,1632 C1039.80369,1635.97 1043.91369,1644.84 1051.87369,1647.13 C1055.75369,1648.25 1057.48369,1645.66 1060.96369,1644.87 C1063.20369,1644.36 1065.52369,1645.06 1067.77369,1644.41 C1071.43369,1643.36 1079.75369,1636.47 1081.14369,1632.91 C1082.13369,1630.37 1081.62369,1627.61 1082.17369,1625 C1083.56369,1618.36 1085.35369,1611.89 1085.82369,1605 C1086.79369,1590.77 1084.76369,1576.12 1086.04369,1562 C1087.25369,1548.6 1088.62369,1535.3 1089.94369,1522 C1090.66369,1514.79 1093.51369,1506.94 1090.87369,1500 C1092.51369,1500.55 1092.32369,1500.36 1092.87369,1502 C1094.37369,1499.39 1093.88369,1497.65 1090.87369,1497 C1091.43369,1494.53 1092.51369,1491.85 1092.23369,1489.29 C1090.60369,1474.25 1073.92369,1468.82 1060.96369,1467.61 C1056.80369,1467.22 1053.25369,1468.8 1048.87369,1468 C1047.42369,1469.61 1046.82369,1470.06 1044.87369,1471 L1043.87369,1467 C1038.26369,1468.39 1026.14369,1475 1025.87369,1481 Z" id="Shape" fill="#736F66"></path>
            </g>
            <g id="Group-2" transform="translate(537.000000, 560.000000)">
                <path d="M20.5154404,93.2535292 C19.9409237,77.2244256 32.0497392,65.0642941 48.0802262,65.5716303 L661.64933,84.9899914 L663.065438,85.0348087 L664.473722,84.8795437 L1240.6195,21.3587601 C1255.82043,19.6828384 1266.38692,29.6433109 1265.60945,44.9172906 L1239.69394,554.049287 C1238.85603,570.510654 1224.90869,582.967975 1208.45299,581.949627 L644.311592,547.038187 L643.086345,546.962364 L641.861024,547.036955 L67.5428582,581.998482 C51.1958781,582.993602 37.6273309,570.677907 37.0408037,554.313707 L20.5154404,93.2535292 L20.5154404,93.2535292 Z" id="Rectangle-2" stroke="#736F66" stroke-width="40"></path>
                <path d="M113.506385,672.7678 C131.119947,672.7678 725.177347,605.7678 1195.1392,683.7678" id="Path-5" stroke="#5DF35C" stroke-width="40" stroke-linecap="round"></path>
                <path d="M199.572653,737.698598 C214.383168,737.698598 713.901456,710.379029 1109.07293,742.1839" id="Path-5-Copy" stroke="#5DF35C" stroke-width="40" stroke-linecap="round"></path>
                <path d="M88,152 C124,152 204,160 204,160" id="Path-6" stroke="#736F66" stroke-width="40" stroke-linecap="round"></path>
                <path d="M113,491 L358,491" id="Path-6-Copy" stroke="#736F66" stroke-width="40" stroke-linecap="round"></path>
                <path d="M913,288 C921,288 925.540358,103 1073.54036,165 C1183,223 1092,346.060713 1092,364.060713 C1092,382.060713 1238,493 1234,573 C1180,573 1062,573 913,554 C913,467 909.706352,288 913,288 Z" id="Path-7" fill="#736F66"></path>
                <g id="Rectangle-3">
                    <use fill="#FFFFFF" fill-rule="evenodd" xlink:href="#path-1"></use>
                    <path stroke="#736F66" stroke-width="40" d="M378,79.0004495 C378,62.15466 391.845075,47.8078278 408.679986,47.2085268 L926.743061,28.7661519 C942.80575,28.194341 955.092146,40.3775737 954.658634,56.4446142 L941.355918,549.47652 C940.903346,566.249965 926.777416,580 909.998875,580 L408.001125,580 C391.431051,580 378,566.569518 378,549.99955 L378,79.0004495 L378,79.0004495 Z"></path>
                </g>
                <path d="M740,186.749972 C740,186.749972 616,99.7499725 574,420.749972 C683,440.749972 748,400.749972 748,400.749972" id="Path-3" stroke="#5DF35C" stroke-width="40" stroke-linecap="round"></path>
                <path d="M539,313 C553.07772,313 682,289 682,289" id="Path-4" stroke="#5DF35C" stroke-width="40" stroke-linecap="round"></path>
            </g>
        </g>
    </g>
</svg>