<?xml version="1.0" encoding="UTF-8"?>
<svg width="2375px" height="1781px" viewBox="0 0 2375 1781" version="1.1" xmlns="http://www.w3.org/2000/svg" xmlns:xlink="http://www.w3.org/1999/xlink">
    <!-- Generator: Sketch 43.2 (39069) - http://www.bohemiancoding.com/sketch -->
    <title>switch</title>
    <desc>Created with Sketch.</desc>
    <defs>
        <path d="M845.52976,1508 C840.229983,1508 834.888909,1506.44839 830.222352,1503.27529 C819.251125,1495.82478 815.025068,1481.49688 820.187189,1469.15392 L1032.75644,959.010798 L910.613778,959.010798 C899.491129,959.010798 889.469732,952.231255 885.202379,941.80334 C880.92126,931.389403 883.247656,919.381924 891.080314,911.3583 L1506.91443,281.266196 C1516.22001,271.760858 1530.86667,270.265165 1541.82413,277.757608 C1552.78159,285.236073 1556.96635,299.563973 1551.80423,311.892956 L1339.31758,819.22641 L1461.39141,819.22641 C1472.50029,819.22641 1482.50792,826.005953 1486.80281,836.405912 C1491.08393,846.819849 1488.78506,858.813349 1480.97994,866.836973 L865.118288,1499.71079 C859.790979,1505.17636 852.687901,1508 845.52976,1508 Z" id="path-1"></path>
    </defs>
    <g id="Collective-switch" stroke="none" stroke-width="1" fill="none" fill-rule="evenodd">
        <g id="switch">
            <rect id="Rectangle-4-Copy" fill="#FFFFFF" x="0" y="0" width="2375" height="1781"></rect>
            <g id="Group" transform="translate(1086.000000, 1062.000000) rotate(2.000000) translate(-1086.000000, -1062.000000) translate(302.000000, 833.000000)" stroke="#736F66" stroke-width="40" stroke-linecap="round" stroke-linejoin="round">
                <path d="M124.5,12 C124.5,12 62,286 124.5,433.953686 C386,514 1568,365 1568,365" id="Line"></path>
                <polyline id="Path-2" transform="translate(98.500000, 82.500000) rotate(-8.000000) translate(-98.500000, -82.500000) " points="9 79 135 12 188 153"></polyline>
            </g>
            <g id="Group-Copy" transform="translate(1329.000000, 702.000000) scale(-1, -1) rotate(2.000000) translate(-1329.000000, -702.000000) translate(586.000000, 472.000000)" stroke="#736F66" stroke-width="40" stroke-linecap="round" stroke-linejoin="round">
                <path d="M124.5,12 C124.5,12 62,286 124.5,433.953686 C386,514 1486,378 1486,378" id="Line"></path>
                <polyline id="Path-2" transform="translate(98.500000, 82.500000) rotate(-8.000000) translate(-98.500000, -82.500000) " points="9 79 135 12 188 153"></polyline>
            </g>
            <g id="Shape-Copy-3" fill-rule="nonzero">
                <use fill="#5DF35C" fill-rule="evenodd" xlink:href="#path-1"></use>
                <path stroke="#FFFFFF" stroke-width="47" d="M1374.63803,795.72641 L1573.47985,320.971363 C1582.94068,298.375534 1575.27057,272.133233 1555.07158,258.347425 C1534.71058,244.425067 1507.39419,247.18352 1490.12191,264.826572 L874.274245,894.932526 C859.871478,909.686436 855.624682,931.661078 863.467323,950.738515 C871.31905,969.925462 889.909687,982.510798 910.613778,982.510798 L997.505824,982.510798 L798.495027,1460.11511 C789.046038,1482.70819 796.775842,1508.96846 817.020097,1522.71624 C825.50057,1528.48268 835.427248,1531.5 845.52976,1531.5 C859.146943,1531.5 872.278531,1526.03276 881.946787,1516.11358 L1497.82177,883.226079 C1512.17157,868.474562 1516.37276,846.529326 1508.53786,827.470736 C1500.61241,808.279372 1482.05517,795.72641 1461.39141,795.72641 L1374.63803,795.72641 Z"></path>
            </g>
        </g>
    </g>
</svg>