<?xml version="1.0" encoding="UTF-8"?>
<svg width="2375px" height="1781px" viewBox="0 0 2375 1781" version="1.1" xmlns="http://www.w3.org/2000/svg" xmlns:xlink="http://www.w3.org/1999/xlink">
    <!-- Generator: Sketch 43.2 (39069) - http://www.bohemiancoding.com/sketch -->
    <title>pledge</title>
    <desc>Created with Sketch.</desc>
    <defs>
        <path d="M488.337187,690.372675 C490.360103,662.83634 514.372252,639.789866 541.98302,638.896508 L1729.01698,600.489516 C1756.62184,599.596348 1779,621.260516 1779,648.868182 L1779,1053.33266 C1779,1080.94463 1756.60862,1103.32855 1729.00334,1103.32855 L507.996657,1103.32855 C480.384266,1103.32855 459.639891,1081.00603 461.662813,1053.46961 L488.337187,690.372675 Z" id="path-1"></path>
    </defs>
    <g id="Collective-switch" stroke="none" stroke-width="1" fill="none" fill-rule="evenodd">
        <g id="pledge">
            <rect id="Rectangle-4" fill="#FFFFFF" x="0" y="0" width="2375" height="1781"></rect>
            <rect id="Rectangle-Copy" fill="#5DF35C" x="563" y="721" width="1321" height="504" rx="50"></rect>
            <g id="Rectangle">
                <use fill="#FFFFFF" fill-rule="evenodd" xlink:href="#path-1"></use>
                <path stroke="#736F66" stroke-width="40" d="M508.283436,691.837996 C509.556991,674.502108 525.243859,659.448577 542.629791,658.886047 L1729.66375,620.479055 C1745.97483,619.951303 1759,632.559169 1759,648.868182 L1759,1053.33266 C1759,1069.89597 1745.56589,1083.32855 1729.00334,1083.32855 L507.996657,1083.32855 C492.006796,1083.32855 480.43773,1070.87932 481.609062,1054.93493 L508.283436,691.837996 Z"></path>
            </g>
            <g id="Group-3" transform="translate(653.000000, 780.000000)" stroke="#736F66" stroke-width="40" stroke-linecap="round" stroke-linejoin="round">
                <path d="M16,184 L0,12 C0,12 79,-3 88,29 C97,61 36,99 36,99" id="Path-8"></path>
                <polyline id="Path-9" points="162 12 165 167 242 169"></polyline>
                <polyline id="Path-10" points="308 7 312 169 401 160"></polyline>
                <polyline id="Path-10-Copy" points="884 9 888 171 977 162"></polyline>
                <path d="M308,13 L394,17" id="Path-11"></path>
                <path d="M884,15 L970,19" id="Path-11-Copy"></path>
                <path d="M383,73 L304,84" id="Path-12"></path>
                <path d="M959,75 L880,86" id="Path-12-Copy"></path>
                <path d="M484,10 L482,165 C482,165 579.489404,169.3542 579,87.3542 C578.510596,5.3542 484,10 484,10 Z" id="Path-13"></path>
                <path d="M759,1 C759,1 662,-1 662,90 C662,181 732.678833,184.116317 752,181 C771.321167,177.883683 755,75 755,75 L799,72" id="Path-14"></path>
            </g>
            <g id="sparks" transform="translate(207.000000, 40.000000)" fill-rule="nonzero">
                <path d="M947.47553,365.939477 L944.504726,366.356996 C944.464571,369.965705 942.036054,373.214304 942.484101,376.7544 C943.698804,386.33155 950.827638,390.732235 956.544335,397.393451 C959.632029,400.990736 962.874104,405.794274 967.582787,407.517724 C971.049121,408.786653 974.782539,406.408922 978.495022,407.022213 C980.680751,402.326318 985.540794,403.409472 990.047702,403.000249 C994.579506,402.588537 998.927918,400.79288 1001.88652,397.277914 C1008.98268,388.850302 1007.42246,376.670915 1006.66867,366.708871 C1005.98966,357.638096 1006.91034,348.596975 1006.27791,339.498445 C1006.09433,336.826996 1005.48885,334.171418 1005.8181,331.484446 C1006.21949,328.232941 1008.96725,324.647634 1005.98163,322.373016 C1006.4604,317.301023 1005.29162,312.289919 1005.96383,307.229114 C1007.00799,299.425854 1010.32874,296.612314 1006.34026,288.998304 C1008.81883,286.874687 1008.91808,284.706776 1009.32712,281.509735 C1007.36855,278.279883 1009.0972,275.20336 1008.63106,271.599159 C1008.30878,269.162297 1006.75736,267.17689 1006.52993,264.696402 C1005.88569,257.813076 1006.96233,249.594251 1008.18817,242.86819 C1008.92898,238.798482 1006.13083,235.055483 1009.43951,232.012388 C1004.87575,219.155418 1007.93138,204.611617 1007.3578,190.902024 C1007.08998,184.469697 1005.5219,175.252229 1008.73292,169.502383 C1006.60457,162.693327 1007.38,156.211326 1007.64887,149.286515 C1007.96342,141.177825 1007.30521,132.470692 1007.1343,124.284815 C1006.59523,97.2406465 1006.61932,69.9642414 1000.27787,43.4523893 C998.69148,36.835073 996.195746,31.5075651 993.860661,25.1675455 C992.196989,20.6589062 991.323931,16.0275402 988.081581,12.2854705 C982.563758,5.93277909 974.408318,0.428327983 965.752384,0.200584873 C961.343451,0.0854391078 957.204169,1.67339972 952.931437,2.38366138 C946.981163,3.37260371 940.966597,2.61072501 938.736669,9.70817284 C936.699737,16.1885254 939.18685,23.2510178 939.328953,29.8019946 C939.637988,43.9644129 941.143607,58.7371384 943.719064,72.6075902 C945.733116,83.4534396 948.512873,94.0783732 948.264758,105.253661 C947.958855,119.02122 946.725247,133.02822 947.110754,146.85816 C947.41621,157.826391 949.060069,168.862008 949.422879,179.857522 C949.757678,189.985491 948.761065,200.268264 948.959169,210.307394 C949.218629,223.470385 949.903882,236.271597 949.701459,249.496472 C949.4267,267.423173 947.901221,285.46809 947.988466,303.347954 C948.041408,314.100226 949.23212,324.713801 948.985466,335.432442 C948.847623,341.39263 948.857923,347.630907 948.507392,353.586653 C948.249704,357.954019 946.941132,361.440063 947.47553,365.939477 L947.47553,365.939477 Z M848.29592,203.806107 C844.32692,202.950107 840.34792,202.897107 836.29592,202.806107 L836.29592,206.806107 L828.29592,206.806107 C827.26792,213.305107 820.48192,216.589107 818.29592,222.806107 C821.22792,226.676107 819.46692,231.453107 821.60892,235.717107 C824.05492,240.586107 827.05692,244.624107 828.75192,249.976107 C834.93892,269.510107 835.93892,290.739107 840.41192,310.806107 C842.73292,321.222107 844.99792,334.715107 851.43592,343.507107 C852.75992,345.315107 854.82792,346.300107 856.25092,348.015107 C859.52792,351.964107 860.47092,357.437107 866.29992,358.513107 C873.13492,359.775107 875.81392,355.259107 879.71692,350.806107 C884.42892,345.430107 888.99392,338.754107 890.68892,331.717107 C891.31892,329.099107 890.37192,326.521107 890.64492,323.895107 C891.15892,318.940107 892.38792,316.749107 890.29592,311.806107 L892.29592,311.806107 C889.33592,295.873107 887.49492,279.012107 886.38492,262.806107 C885.53192,250.345107 886.14292,237.216107 883.07092,224.980107 C882.04192,220.878107 879.69192,216.976107 878.43792,212.845107 C875.67492,203.744107 866.03892,203.477107 858.29592,202.127107 C854.17992,201.410107 850.89692,199.798107 848.29592,203.806107 L848.29592,203.806107 Z M1077.2984,407.369016 L1082.2984,407.369016 C1084.1484,412.638016 1088.7784,410.578016 1093.2984,411.053016 C1102.7484,412.044016 1111.9884,410.833016 1121.2984,408.369016 C1121.9684,402.371016 1126.5584,398.670016 1127.1184,392.369016 C1128.4284,377.447016 1127.5084,361.434016 1126.7584,346.539016 C1126.6284,344.076016 1125.4584,341.853016 1125.3884,339.354016 C1125.1884,331.313016 1126.6884,323.228016 1127.2484,315.330016 C1127.7684,308.007016 1126.8684,300.671016 1126.8684,293.369016 C1126.8684,287.036016 1127.6484,280.725016 1127.2084,274.369016 C1126.5184,264.230016 1126.8184,252.152016 1124.2384,242.369016 C1123.1384,238.228016 1122.6584,233.885016 1118.2984,232.369016 C1118.2984,229.693016 1119.0584,225.352016 1117.2684,223.111016 C1115.9284,221.422016 1113.4084,221.464016 1111.6684,220.361016 C1109.6584,219.080016 1108.4884,216.881016 1106.1984,215.972016 C1103.4384,214.883016 1100.1884,215.645016 1097.2984,215.218016 C1093.9884,214.728016 1090.7084,212.978016 1087.3384,213.107016 C1082.4484,213.293016 1074.5584,219.110016 1072.5784,223.499016 C1065.1884,239.885016 1066.7184,259.982016 1066.6084,277.369016 C1066.4784,300.407016 1064.9684,323.396016 1064.9584,346.369016 C1064.9584,350.395016 1063.6384,354.343016 1063.6384,358.369016 C1063.6384,361.743016 1064.6384,364.968016 1064.2684,368.369016 C1063.5284,375.203016 1062.1184,380.440016 1063.7684,387.369016 C1065.7984,395.896016 1074.9984,399.688016 1077.2984,407.369016 L1077.2984,407.369016 Z M891.33,221.667 C891.28,221.722 891.22,222.778 891.67,222.333 C891.72,222.278 891.78,221.222 891.33,221.667 L891.33,221.667 Z M1729,423 C1725.07,423.845 1726,428.419 1724.42,431.778 C1719.97,441.22 1725.78,449.847 1731.61,457.194 C1734.72,461.111 1735.6,463.886 1741,464 C1742.48,468.671 1746.84,468.737 1750,472 C1758,470.51 1765.32,470.786 1772.56,466.536 C1776.56,464.191 1782.33,460.154 1785.22,456.526 C1789.2,451.529 1791.15,444.433 1794.75,439.039 C1799.24,432.307 1805.42,426.738 1810.59,420.576 C1815.28,414.972 1819.09,408.619 1824.32,403.325 C1828.25,399.353 1833.62,397.511 1837.54,393.762 C1847.34,384.396 1856.97,374.317 1867.17,365.375 C1874.84,358.65 1883.62,353.087 1891.28,346.531 C1894.25,343.987 1896.5,340.637 1899.48,338.051 C1907.75,330.866 1918.27,323.955 1925.24,315.559 C1933.17,306.013 1942.4,297.726 1950.38,288.159 C1952.84,285.206 1956.99,282.82 1958.2,279 C1959.3,275.556 1956.17,271.603 1956.02,267.999 C1955.75,261.562 1955.03,251.27 1948.74,247.457 C1944.36,244.804 1938.58,246.857 1934,247.845 C1920.75,250.705 1906.73,259.411 1895.83,267.461 C1866.25,289.308 1838.97,314.034 1811,337.882 C1802.33,345.275 1792.5,351.628 1784.13,359.442 C1778.48,364.72 1773.38,370.636 1768.04,376.242 C1757.88,386.924 1747.91,397.292 1738.02,408.157 C1734.1,412.457 1728.06,416.718 1729,423 L1729,423 Z M31,257.959542 C27.067,257.215542 22.851,255.369542 18.91,255.131542 C11.988,254.713542 5.45,259.365542 0,262.959542 C1.783,272.562542 2.079,282.189542 7.415,290.870542 C10.094,295.228542 14.735,298.258542 18.275,301.870542 C25.235,308.969542 31.848,316.497542 38.265,324.089542 C56.232,345.345542 73.509,367.270542 91.47,388.423542 C97.849,395.935542 104.616,403.418542 110.691,411.067542 C114.88,416.340542 117.699,422.888542 124,425.959542 L123,429.959542 C129.488,434.240542 136.825,444.206542 138,451.959542 L142,451.959542 C142.129,458.079542 146.449,461.314542 149.583,466.181542 C153.882,472.857542 158.49,479.453542 162.75,486.181542 C164.262,488.568542 164.615,491.208542 166.583,493.376542 C169.891,497.018542 172.163,500.746542 174.694,504.959542 C175.598,506.463542 176.023,509.142542 177.472,510.209542 C179.386,511.618542 179.76,509.102542 180,507.959542 C185.334,512.821542 189.701,511.307542 196,508.959542 C198.422,512.268542 203.365,507.409542 206.134,505.792542 C209.791,503.657542 215.364,502.845542 218.528,500.093542 C221.283,497.697542 221.946,491.374542 222,487.959542 C224.172,487.495542 225.958,486.854542 228,485.959542 C226.786,478.805542 226.075,469.685542 222.697,463.245542 C220.206,458.497542 215.553,454.683542 212.21,450.535542 C207.796,445.057542 203.884,438.649542 199.947,432.789542 C183.742,408.674542 169.23,383.197542 150.32,361.129542 C137.737,346.444542 123.753,332.451542 110.625,318.241542 C102.348,309.281542 94.632,300.887542 89,289.959542 C81.962,289.643542 77.517,280.115542 73.045,275.454542 C71.355,273.693542 68.996,272.924542 67.086,271.454542 C60.888,266.683542 55.224,261.761542 48.7,257.343542 C44.343,254.393542 33.169,251.795542 31,257.959542 L31,257.959542 Z M1656,298.177588 C1649.66,313.136588 1632.64,323.886588 1622.01,335.792588 C1616.24,342.264588 1610.3,350.896588 1602,354.177588 C1599.83,361.989588 1592,368.197588 1586.29,373.601588 C1583.58,376.165588 1581.44,378.649588 1578,380.177588 L1578,385.177588 C1573.61,386.425588 1571.7,388.674588 1571,393.177588 C1565.14,394.151588 1563.48,400.310588 1557,401.177588 C1554,407.314588 1545.89,407.936588 1544,414.177588 L1539,414.177588 C1537.21,422.814588 1532.67,436.069588 1538,444.177588 C1536.37,446.177588 1535.66,447.679588 1535,450.177588 C1538.03,453.813588 1540.82,455.338588 1544.27,458.436588 C1548.46,462.192588 1550.05,465.146588 1556,466.177588 L1555,471.177588 C1562.9,472.175588 1572.04,472.703588 1579.58,469.373588 C1593.8,463.084588 1601.38,447.227588 1611.71,436.412588 C1621.06,426.616588 1629.21,415.682588 1638.23,405.604588 C1641.98,401.420588 1646.75,398.627588 1650.57,394.707588 C1653.04,392.174588 1654.08,388.571588 1656.48,385.892588 C1664.97,376.428588 1674.69,368.069588 1683.31,358.746588 C1687.42,354.295588 1690.85,348.817588 1694.71,344.086588 C1700.49,337.010588 1706.1,329.826588 1711.85,322.792588 C1716.5,317.096588 1720.82,311.786588 1722.2,304.178588 C1723.36,297.814588 1718.17,292.142588 1717,286.177588 C1710.56,284.865588 1711.7,280.450588 1707.41,277.205588 C1704.39,274.914588 1695.78,273.988588 1692.04,274.232588 C1675.64,275.299588 1670.44,294.263588 1656,298.177588 Z" id="Shape" fill="#736F66"></path>
                <path d="M12.667,367.333 C12.222,367.778 13.278,367.722 13.333,367.667 C13.778,367.222 12.722,367.278 12.667,367.333 Z" id="Shape" fill="#D3D1CB"></path>
                <path d="M1830,519 C1827.47,527.635 1816.69,530.891 1809,533.322 C1802.57,535.354 1796.66,538.148 1790,539.667 C1786.68,540.425 1783.35,539.867 1780.04,540.492 C1773.25,541.773 1765.96,548.47 1763.78,555.001 C1762.2,559.717 1762.53,567.005 1763.13,571.911 C1763.91,578.322 1768.35,582.539 1771,588 L1775,588 L1774,592 C1783.3,597.927 1794.9,602.058 1806,599.702 C1811.97,598.435 1817.33,594.957 1823,592.884 C1825.18,592.086 1827.56,592.23 1829.71,591.417 C1833.69,589.918 1837.4,587.056 1841.17,585.076 C1853.5,578.597 1865.13,571.187 1877.09,564.005 C1884.66,559.455 1891.65,553.483 1899.18,549.134 C1903.72,546.513 1909.3,545.418 1911,540 C1916.06,539.212 1919.55,535.449 1924.04,533.178 C1938.17,526.027 1954.22,517.178 1960.06,501.576 C1961.35,498.112 1959.11,494.407 1958.47,491 C1957.94,488.177 1958.33,485.094 1957.1,482.44 C1953.51,474.668 1944.99,471.562 1937,471.055 C1927.57,470.456 1920.06,474.843 1911.71,478.38 C1893.9,485.928 1876.44,495.742 1859.91,505.63 C1850.59,511.203 1841.72,520.664 1830,519 L1830,519 Z M18,505 C15.648,504.41 13.424,504.195 11,504 L13,509 L9,509 C7.68,512.703 7.106,515.096 8,519 L4,520 C4,524.431 1.016,532.822 3.319,536.509 C6.366,541.388 12.895,544.622 17.83,547.069 C25.101,550.675 32.797,554.312 39.83,558.325 C56.061,567.584 68.37,582.846 85.209,591.026 C94.293,595.439 100.763,591.4 109.961,591.313 C115.097,591.265 121.638,594.723 124,588 L128,588 C127.651,584.727 128.27,581.208 127.512,578.015 C126.808,575.047 124.735,572.724 123.669,569.911 C121.548,564.312 120.196,558.351 116.901,553.261 C113.248,547.617 107.599,542.863 102.834,538.204 C99.965,535.4 97.931,531.881 94.964,529.126 C85.308,520.16 73.722,512.464 63.545,504.051 C59.295,500.537 53.857,498.447 49.09,495.759 C47.029,494.598 45.258,492.889 42.911,492.314 C33.945,490.117 21.16,496.802 18,505 Z" id="Shape" fill="#736F66"></path>
                <path d="M192,514 L192,517 C192.696,515.446 192.696,515.554 192,514 Z" id="Shape" fill="#D3D1CB"></path>
                <path d="M1366,757 L1366,759 C1367.63,758.455 1367.45,758.635 1368,757 L1366,757 Z" id="Shape" fill="#D3D1CB"></path>
                <polygon id="Shape" fill="#D3D1CB" points="1323 773 1323 775 1325 775 1325 773"></polygon>
                <polygon id="Shape" fill="#252525" points="1023 823 1023 825 1026 825 1026 823"></polygon>
                <path d="M146,1149 L147,1153 C142.91,1153.59 140.653,1156.13 137.195,1158.17 C129.627,1162.65 123.16,1167.76 115.914,1172.6 C109.548,1176.84 103.447,1182.1 96.83,1185.88 C89.546,1190.04 81.717,1193.16 74.836,1198.28 C72.002,1200.39 69.865,1203.53 67.157,1205.84 C59.769,1212.13 51.989,1217.62 44,1223 C44.472,1224.42 44.814,1224.81 46,1226 L39,1227 L40,1232 C33.655,1233.77 23.036,1243.42 22,1250 L18,1250 C16.58,1255.21 12.391,1258.43 12,1264 C7.728,1265.41 1.67,1274.17 4.198,1278.71 C7.95,1285.45 19.914,1289.89 26.914,1291.25 C29.41,1291.74 31.478,1292.94 34.039,1292.01 C38.378,1290.44 42.267,1287.25 46.576,1285.42 C55.598,1281.59 65.307,1278.4 73.675,1272.88 C87.278,1263.9 99.675,1252.44 113.576,1243.8 C115.765,1242.44 118.42,1242.34 120.546,1240.98 C122.606,1239.66 123.824,1237.47 126.054,1236.32 C128.422,1235.09 131.188,1235.24 133.575,1234.08 C137.132,1232.35 139.725,1229.15 143.09,1227.13 C145.834,1225.49 148.977,1225.09 151.83,1223.74 C158.424,1220.62 165.479,1216.73 173,1217 C179.369,1211.01 188.515,1213.08 190,1202 C194.527,1200.63 195.157,1197.46 195.714,1193 C196.836,1184.02 192.095,1177.63 192,1169 C186.924,1167.24 181.622,1162.48 177.764,1158.71 C175.731,1156.73 174.594,1154.35 171.87,1153.14 C163.477,1149.41 154.234,1152.74 146,1149 L146,1149 Z M1799,1259 L1793,1271 C1794.48,1271.99 1794.2,1272 1796,1272 L1796,1275 C1793.45,1276.63 1793.22,1277.99 1793,1281 L1796,1280 C1797.52,1289.47 1808.95,1290.02 1814.92,1295.39 C1820.57,1300.47 1826.78,1304.27 1832.64,1309.08 C1834.38,1310.51 1835.45,1312.86 1837.31,1314.06 C1839.58,1315.53 1842.46,1314.7 1844.78,1316.25 C1847.26,1317.91 1848.88,1320.67 1851.39,1322.33 C1854.5,1324.39 1857.76,1326.05 1860.78,1328.33 C1862.93,1329.96 1865.6,1332.91 1868.22,1333.64 C1871.21,1334.46 1873.86,1331.72 1876.92,1332.33 C1879.89,1332.93 1881.67,1335.11 1885,1334.75 C1893.42,1333.83 1893.73,1326.51 1895.42,1320 C1896.31,1316.55 1900.41,1312.16 1895,1311 C1896.51,1305.26 1896.75,1299.67 1895,1294 L1892,1294 C1892.89,1290.01 1891.94,1288.2 1888,1287 C1887.82,1281.55 1884.9,1280.03 1882,1275.82 C1876.4,1267.68 1868.43,1262 1861.04,1255.71 C1858.88,1253.86 1857.34,1251.59 1855,1250 C1855.99,1248.52 1856,1248.8 1856,1247 C1852.23,1245.05 1849.36,1241.66 1845.58,1239.85 C1841.06,1237.7 1835.77,1238.44 1831,1238.54 C1828.01,1238.61 1824.9,1237.56 1822.09,1239.03 C1819.64,1240.31 1818.03,1242.82 1815.91,1244.53 C1813.67,1246.34 1810.83,1247.39 1808.9,1249.57 C1805.23,1253.72 1805.29,1258.02 1799,1259 L1799,1259 Z M212,1239 L211,1245 L205,1244 L205,1250 C201.22,1250.48 198.347,1251.24 197,1255 C191.969,1255.84 191.293,1260 188.71,1263.92 C185.975,1268.07 182.474,1272.41 178.914,1275.87 C168.323,1286.15 157.079,1296.11 145.961,1305.83 C140.426,1310.67 134.499,1314.58 129.29,1319.88 C124.084,1325.18 117.073,1328.4 115,1336 C108.29,1336.74 104.225,1342.35 99.718,1346.95 C95.919,1350.82 91.673,1354.22 87.807,1358.01 C84.921,1360.85 82.946,1363.8 79,1365 C77.237,1368.64 74.15,1371.07 73,1375 L69,1375 C65.832,1383.62 59.676,1388.75 53.325,1395.08 C49.353,1399.04 46.174,1403.59 41,1406 C39.877,1409.65 36.752,1410.85 35.151,1414.09 C34.279,1415.86 35.275,1417.81 34.427,1419.56 C33.345,1421.79 30.755,1423.14 29.359,1425.21 C25.385,1431.1 21.23,1439.27 15,1443 L16,1449 C13.098,1450.61 11.933,1451.81 11,1455 C14.706,1454.66 17.574,1453.3 21,1452 C22.954,1457.6 28.979,1461.66 24,1467 C26.861,1470.25 29.835,1469.75 32,1466 C33.479,1466.99 33.203,1467 35,1467 C41.001,1460.97 47.728,1459.75 54.999,1455.88 C63.961,1451.11 72.02,1444.59 82,1442 C85.748,1432.35 97.797,1426.41 105.776,1420.57 C110.776,1416.9 115.39,1411.15 119.866,1406.75 C124.356,1402.34 128.603,1397.3 135,1396 C136.266,1387.89 146.136,1385.45 151.334,1379.89 C156.482,1374.38 162.591,1370.69 168.127,1365.74 C178.452,1356.52 188.195,1347.16 199.845,1339.26 C204.659,1335.99 208.677,1329.58 214,1328 C215.692,1325 218.195,1323.75 220.742,1321.49 C225.998,1316.82 231.316,1311.54 237.17,1307.58 C239.49,1306.01 242.377,1305.88 244.722,1304.39 C247.873,1302.4 250.011,1297.44 251,1294 L256,1294 C258.044,1288.25 261.265,1281.39 260.601,1275.08 C260.258,1271.83 257.919,1268.05 256.702,1265 C254.717,1260.03 252.626,1255.93 247,1255 C244.942,1245.5 229.874,1244.46 222.17,1242.54 C218.673,1241.68 215.51,1239.83 212,1239 L212,1239 Z M1754,1293 C1752.79,1296.92 1749.6,1298.18 1747.43,1301.47 C1745.92,1303.76 1746.03,1306.37 1746,1309 C1741.84,1310.21 1741.09,1312.53 1739,1316 L1740,1319 C1738.52,1318.01 1738.8,1318 1737,1318 C1736.58,1320.69 1736.28,1321.55 1734,1323 C1734.91,1326.29 1736.28,1329.06 1738,1332 L1734,1333 C1734.63,1337.42 1736.47,1340.24 1741,1341 C1742.55,1345.41 1746.46,1347.65 1751,1348 C1752.2,1351.86 1755.01,1353.04 1757.96,1355.6 C1763.93,1360.77 1773.82,1368.3 1776,1376 C1781.45,1378.18 1783.63,1382.27 1784,1388 C1791.21,1390.34 1797.7,1394.64 1802.12,1400.91 C1806.24,1406.76 1809.33,1415.81 1817,1417 C1817.8,1421.77 1821.36,1423.68 1824.67,1426.91 C1828.88,1430.99 1832.2,1435.71 1836.6,1439.64 C1842.87,1445.24 1847.62,1452.35 1854.26,1457.61 C1863.08,1464.61 1873.38,1470.34 1882.7,1476.79 C1889.43,1481.45 1892.8,1486.41 1901,1489 C1904.08,1485.58 1911.05,1485.64 1911.85,1480.94 C1912.96,1474.42 1911.01,1467.14 1908.98,1461 C1907.61,1456.88 1905.83,1452.71 1910,1450 C1906.55,1436.23 1893.69,1428.45 1887.09,1416.58 C1883.85,1410.74 1879.6,1399.36 1873,1397 C1872.28,1392.83 1869.12,1391.52 1866.47,1388.46 C1860.28,1381.3 1852.73,1374.18 1847.3,1366.5 C1844.24,1362.17 1842.38,1355.92 1837,1354 C1836.32,1349.55 1833.43,1347.52 1831.02,1343.91 C1828.02,1339.42 1826.89,1333.01 1821,1332 C1819.59,1322.64 1811.42,1317.67 1805.74,1310.74 C1801.81,1305.94 1798.59,1300.06 1792,1299 C1791.77,1294 1786.58,1292.51 1782,1292.17 C1772.48,1291.45 1763.53,1292.8 1754,1293 L1754,1293 Z M877,1337 C870.71,1334.75 864.136,1334.23 862,1342 C860.122,1342.18 858.8,1342.44 857,1343 L858,1347 C854.007,1347.64 852.636,1349.01 852,1353 C856.749,1355.84 852.786,1359.33 853.303,1363.83 C853.793,1368.09 856.404,1371.94 857.447,1376.04 C858.46,1380.02 857.734,1384.05 857,1388 C860.872,1390.51 859.548,1393.88 859.455,1398 C859.325,1403.8 859.178,1410.23 859.513,1416 C860.019,1424.72 858.155,1433.35 857.18,1442 C854.836,1462.8 851.409,1483.31 848.718,1504 C847.713,1511.73 846.096,1519.24 846.675,1527 C846.902,1530.03 845.71,1532.82 848,1535 L848,1537 C843.473,1540.81 844.098,1553.22 843.084,1559 C840.74,1572.36 841.284,1585.67 841.126,1599 C841.011,1608.72 838.08,1618.31 838,1628 L841,1628 L841,1652 L844,1650 C839.652,1666.43 843.107,1683.32 841,1700 C845.778,1697.73 848.423,1694.66 854,1696 L854,1694 L856,1694 L857,1698 C860.061,1696.94 861.099,1694.8 863.234,1692.42 C865.971,1689.37 869.17,1686.38 871.1,1682.71 C872.54,1680 872.67,1676.82 873.85,1674 C875.64,1669.75 879.81,1666.97 881.44,1662.71 C886.3,1649.99 887.86,1636.13 894,1624 C890.26,1621.52 892.76,1612.64 892,1608 C896.46,1607.04 895.24,1599.03 896.31,1595 C900.18,1580.3 898.01,1564 901,1549 C903.05,1538.7 902.3,1528.26 904.11,1518.03 C904.43,1516.21 905.57,1514.73 905.89,1512.92 C906.58,1508.96 905.87,1505 907.28,1501.08 C908.06,1498.9 909.58,1497.38 909.92,1495 C911.26,1485.45 911.13,1475.6 912.08,1466 C912.67,1460.13 914.99,1454.71 915.89,1449 C916.71,1443.75 915.94,1438.19 916.72,1433 C917.09,1430.55 918.5,1428.44 918.89,1426 C920.79,1413.92 918.87,1401.46 921.69,1389.78 C922.54,1386.27 920.24,1380.77 920.03,1377 C919.46,1366.86 923.23,1343.9 909,1341 L909,1336 L902,1337 L902,1334 C899.32,1334.14 896.68,1334.94 894,1334.94 C889.41,1334.94 878.43,1330.32 877,1337 L877,1337 Z M1139,1366 C1137.24,1367.73 1136.36,1368.34 1134,1369 C1131.83,1376.84 1124.79,1385.81 1131,1394 C1128.45,1398.13 1132.43,1400.24 1134.28,1404.01 C1135.95,1407.45 1136.37,1411.29 1138.58,1414.48 C1142.26,1419.78 1146.65,1422.41 1148.64,1429 C1152.35,1441.28 1159.95,1452.03 1164.25,1464 C1169.32,1478.11 1172.92,1492.85 1177.94,1507 C1184.2,1524.64 1191.38,1542.2 1197,1560 C1203.91,1561.79 1204.98,1569.48 1211.09,1572.14 C1217.29,1574.84 1226.32,1570.01 1233,1570 C1234.11,1565.71 1235.95,1562.59 1236,1558 L1240,1558 C1241.9,1547.76 1243.03,1536.35 1241.46,1526 C1240.38,1518.88 1236.73,1511.88 1234.68,1505 C1232.11,1496.34 1230.1,1486.92 1228.39,1478 C1227.01,1470.82 1223.37,1463.33 1224,1456 C1217.41,1449.79 1216.38,1437.5 1213.83,1429.04 C1209.31,1414.01 1202.74,1398.94 1195.05,1385.29 C1193.39,1382.34 1193.09,1379 1191.55,1376.04 C1187.63,1368.53 1179.76,1364.77 1172,1363 C1170.78,1364.2 1170.58,1364.32 1169,1365 C1169,1363.2 1168.99,1363.48 1168,1362 C1162.2,1364.11 1157.06,1363.41 1151.09,1364.13 C1146.81,1364.65 1143.46,1366.25 1139,1366 L1139,1366 Z M365,1392 C362.572,1389.03 362.105,1386.68 358,1386 L358,1381 C356.151,1379.91 355.093,1378.14 353.315,1377.04 C351.46,1375.9 349.04,1376.27 347.039,1375.42 C337.098,1371.19 326.634,1367.07 316.054,1372.1 C312.879,1373.61 311.475,1376.22 309.294,1378.8 C302.831,1386.44 298.987,1395.55 293.62,1403.91 C287.65,1413.21 282.501,1422.9 275.946,1431.99 C273.377,1435.55 269.743,1438.08 267.144,1441.59 C265.02,1444.46 264.079,1447.99 262.096,1450.96 C255.599,1460.69 249.187,1469 244.736,1479.96 C240.978,1489.22 235.765,1498.43 237.704,1508.99 C238.734,1514.59 244.69,1516.83 248.755,1519.82 C250.6,1521.17 251.909,1523.14 254.129,1523.95 C257.44,1525.17 260.719,1523.6 264,1523.09 C282.94,1520.16 291.701,1505.91 302.87,1492.09 C307.975,1485.77 311.883,1478.45 317.169,1472.39 C323.17,1465.5 329.969,1459.46 335.974,1452.54 C342.242,1445.31 347.789,1437.47 354.035,1430.3 C358.466,1425.22 364.975,1418.53 366.701,1411.83 C368.62,1404.38 363.943,1399.04 365,1392 L365,1392 Z M976,1390 C971.45,1391.83 970.11,1398.44 969,1403 L973,1404 C972.25,1404.52 971.06,1405.12 970.41,1405.87 C965.05,1412.12 974.14,1415.1 974.94,1420.9 C975.52,1425.05 968.48,1427.64 974.19,1431.4 C974.95,1431.9 976.21,1431.87 977,1432 C976.33,1435.54 976.97,1437.03 980,1439 C975.91,1456.2 979.35,1475.43 977.76,1493 C977.33,1497.67 976.42,1509.88 980,1513 L978,1525 C983.15,1528.23 983.46,1535.44 983,1541 C989.93,1544.97 994.04,1553.84 1002,1556.13 C1005.88,1557.25 1007.61,1554.66 1011.09,1553.87 C1013.33,1553.36 1015.65,1554.06 1017.9,1553.41 C1021.56,1552.36 1029.88,1545.47 1031.27,1541.91 C1032.26,1539.37 1031.75,1536.61 1032.3,1534 C1033.69,1527.36 1035.48,1520.89 1035.95,1514 C1036.92,1499.77 1034.89,1485.12 1036.17,1471 C1037.38,1457.6 1038.75,1444.3 1040.07,1431 C1040.79,1423.79 1043.64,1415.94 1041,1409 C1042.64,1409.55 1042.45,1409.36 1043,1411 C1044.5,1408.39 1044.01,1406.65 1041,1406 C1041.56,1403.53 1042.64,1400.85 1042.36,1398.29 C1040.73,1383.25 1024.05,1377.82 1011.09,1376.61 C1006.93,1376.22 1003.38,1377.8 999,1377 C997.55,1378.61 996.95,1379.06 995,1380 L994,1376 C988.39,1377.39 976.27,1384 976,1390 Z" id="Shape" fill="#736F66"></path>
            </g>
        </g>
    </g>
</svg>