<?xml version="1.0" encoding="UTF-8"?>
<svg width="145px" height="23px" viewBox="0 0 145 23" version="1.1" xmlns="http://www.w3.org/2000/svg" xmlns:xlink="http://www.w3.org/1999/xlink">
    <!-- Generator: Sketch 43.2 (39069) - http://www.bohemiancoding.com/sketch -->
    <title>power-pack-logo</title>
    <desc>Created with Sketch.</desc>
    <defs></defs>
    <g id="Page-1" stroke="none" stroke-width="1" fill="none" fill-rule="evenodd">
        <g id="power-pack-logo" fill-rule="nonzero">
            <g id="Wolverton-+-PP">
                <g id="renewable-group-PP-light-house-lockup">
                    <g id="powerpack-logo">
                        <path d="M9.29888686,3.692 C10.0376622,4.18000244 10.6318857,4.83599588 11.081575,5.66 C11.5312644,6.48400412 11.7561057,7.38399512 11.7561057,8.36 C11.7561057,9.3200048 11.5312644,10.2159958 11.081575,11.048 C10.6318857,11.8800042 10.0376622,12.5399976 9.29888686,13.028 C8.5601115,13.5160024 7.78119698,13.76 6.96211995,13.76 L2.77039375,13.76 L2.77039375,18.296 C2.77039375,18.7280022 2.64191301,19.0799986 2.38494767,19.352 C2.12798232,19.6240014 1.79072037,19.76 1.37315169,19.76 C0.971643338,19.76 0.64241143,19.6200014 0.385446087,19.34 C0.128480744,19.0599986 0,18.7120021 0,18.296 L0,4.424 C0,4.00799792 0.140525814,3.6600014 0.421581658,3.38 C0.702637502,3.0999986 1.05194453,2.96 1.46951321,2.96 L6.96211995,2.96 C7.78119698,2.96 8.5601115,3.20399756 9.29888686,3.692 Z M7.86550922,10.64 C8.1626254,10.3839987 8.40352679,10.052002 8.58822063,9.644 C8.77291447,9.23599796 8.86526001,8.80800224 8.86526001,8.36 C8.86526001,7.91199776 8.77291447,7.48400204 8.58822063,7.076 C8.40352679,6.66799796 8.1626254,6.34000124 7.86550922,6.092 C7.56839304,5.84399876 7.2672663,5.72 6.96211995,5.72 L2.77039375,5.72 L2.77039375,11.024 L6.96211995,11.024 C7.2672663,11.024 7.56839304,10.8960013 7.86550922,10.64 Z M25.5598937,16.796 C24.9817216,17.8120051 24.1907621,18.5999972 23.1869912,19.16 C22.1832203,19.7200028 21.0790889,20 19.8745639,20 C18.6539785,20 17.5458321,19.7200028 16.5500914,19.16 C15.5543507,18.5999972 14.7674061,17.8120051 14.1892341,16.796 C13.6110621,15.7799949 13.3219804,14.6320064 13.3219804,13.352 C13.3219804,12.0719936 13.6110621,10.9240051 14.1892341,9.908 C14.7674061,8.89199492 15.5543507,8.10000284 16.5500914,7.532 C17.5458321,6.96399716 18.6539785,6.68 19.8745639,6.68 C21.0790889,6.68 22.1832203,6.96399716 23.1869912,7.532 C24.1907621,8.10000284 24.9817216,8.89199492 25.5598937,9.908 C26.1380657,10.9240051 26.4271474,12.0719936 26.4271474,13.352 C26.4271474,14.6320064 26.1380657,15.7799949 25.5598937,16.796 Z M23.0424489,11.252 C22.7132121,10.6359969 22.2715595,10.1600017 21.717478,9.824 C21.1633965,9.48799832 20.5490979,9.32 19.8745639,9.32 C19.2000299,9.32 18.5857313,9.48799832 18.0316498,9.824 C17.4775683,10.1600017 17.0359157,10.6359969 16.7066789,11.252 C16.377442,11.8680031 16.2128261,12.5679961 16.2128261,13.352 C16.2128261,14.1360039 16.377442,14.831997 16.7066789,15.44 C17.0359157,16.048003 17.4775683,16.5199983 18.0316498,16.856 C18.5857313,17.1920017 19.2000299,17.36 19.8745639,17.36 C20.5490979,17.36 21.1633965,17.1920017 21.717478,16.856 C22.2715595,16.5199983 22.7132121,16.048003 23.0424489,15.44 C23.3716858,14.831997 23.5363017,14.1360039 23.5363017,13.352 C23.5363017,12.5679961 23.3716858,11.8680031 23.0424489,11.252 Z M44.6515202,7.34 C44.9165157,7.6200014 45.0490115,7.97599784 45.0490115,8.408 C45.0490115,8.55200072 45.0168913,8.73599888 44.9526499,8.96 L41.2668217,18.848 C41.1704597,19.1360014 40.9978137,19.3639992 40.7488786,19.532 C40.4999434,19.7000008 40.2309368,19.784 39.9418508,19.784 L39.7491278,19.76 C39.2030764,19.7279998 38.793544,19.4240029 38.5205184,18.848 L36.472836,12.944 L34.5215152,18.848 C34.2484895,19.4240029 33.8389572,19.7279998 33.2929058,19.76 L33.1001828,19.784 C32.8110967,19.784 32.5420902,19.7000008 32.293155,19.532 C32.0442198,19.3639992 31.8715738,19.1360014 31.7752118,18.848 L28.0893836,8.96 C28.0251423,8.78399912 27.9930221,8.60000096 27.9930221,8.408 C27.9930221,8.007998 28.1255179,7.66000148 28.3905134,7.364 C28.6555089,7.06799852 29.0048159,6.92 29.4384449,6.92 C29.7596516,6.92 30.0366882,6.99599924 30.2695631,7.148 C30.5024379,7.30000076 30.6670538,7.52799848 30.7634158,7.832 L33.3651769,14.864 L35.268317,9.728 C35.5252823,9.13599704 35.9669349,8.84 36.5932879,8.84 C36.9305549,8.84 37.1915314,8.91199928 37.3762253,9.056 C37.5609191,9.20000072 37.717505,9.42399848 37.8459877,9.728 L39.700947,14.744 L42.2786177,7.832 C42.3749797,7.52799848 42.5436107,7.30000076 42.7845157,7.148 C43.0254207,6.99599924 43.3225324,6.92 43.6758598,6.92 C44.0613078,6.92 44.3865247,7.0599986 44.6515202,7.34 Z M58.443263,13.976 C58.154177,14.2160012 57.816915,14.336 57.431467,14.336 L49.4816415,14.336 C49.6743655,15.2800047 50.116018,16.0199973 50.8066124,16.556 C51.4972068,17.0920027 52.2761213,17.36 53.1433793,17.36 C53.801853,17.36 54.315776,17.3000006 54.6851636,17.18 C55.0545513,17.0599994 55.347648,16.9320007 55.5644625,16.796 C55.781277,16.6599993 55.9298329,16.5680002 56.0101346,16.52 C56.2992206,16.3759993 56.5722422,16.304 56.8292075,16.304 C57.1664745,16.304 57.4555562,16.4239988 57.6964612,16.664 C57.9373662,16.9040012 58.0578169,17.1839984 58.0578169,17.504 C58.0578169,17.9360022 57.8329756,18.3279982 57.3832863,18.68 C56.9335969,19.0480018 56.3313434,19.3599987 55.5765077,19.616 C54.821672,19.8720013 54.0588176,20 53.2879216,20 C51.9388535,20 50.7624517,19.7200028 49.7586808,19.16 C48.75491,18.5999972 47.9800105,17.8280049 47.4339591,16.844 C46.8879078,15.8599951 46.6148862,14.7520062 46.6148862,13.52 C46.6148862,12.1439931 46.9039679,10.9360052 47.4821399,9.896 C48.0603119,8.8559948 48.8231663,8.06000276 49.770726,7.508 C50.7182857,6.95599724 51.7300716,6.68 52.806114,6.68 C53.866096,6.68 54.8658368,6.96799712 55.8053663,7.544 C56.7448959,8.12000288 57.4957052,8.89599512 58.0578169,9.872 C58.6199286,10.8480049 58.9009802,11.9039943 58.9009802,13.04 C58.8849199,13.4240019 58.732349,13.7359988 58.443263,13.976 Z M49.5057318,11.936 L55.8174115,11.936 L55.8174115,11.768 C55.7531702,11.0959966 55.4239383,10.5200024 54.8297059,10.04 C54.2354736,9.5599976 53.5609497,9.32 52.806114,9.32 C50.9431152,9.32 49.8429989,10.1919913 49.5057318,11.936 Z M69.2237083,7.088 C69.5529451,7.36000136 69.7175611,7.67999816 69.7175611,8.048 C69.7175611,8.54400248 69.5890803,8.91599876 69.332115,9.164 C69.0751496,9.41200124 68.7700079,9.536 68.4166805,9.536 C68.1757755,9.536 67.9027539,9.48000056 67.5976076,9.368 C67.5494266,9.35199992 67.4410209,9.32000024 67.2723874,9.272 C67.1037539,9.22399976 66.9230779,9.2 66.7303539,9.2 C66.3127852,9.2 65.9112829,9.32799872 65.5258349,9.584 C65.1403868,9.84000128 64.8232,10.2279974 64.5742648,10.748 C64.3253297,11.2680026 64.2008639,11.8879964 64.2008639,12.608 L64.2008639,18.296 C64.2008639,18.7120021 64.0643531,19.0599986 63.7913275,19.34 C63.5183018,19.6200014 63.1730098,19.76 62.7554411,19.76 C62.3378724,19.76 61.9925804,19.6200014 61.7195547,19.34 C61.4465291,19.0599986 61.3100183,18.7120021 61.3100183,18.296 L61.3100183,8.384 C61.3100183,7.96799792 61.4465291,7.6200014 61.7195547,7.34 C61.9925804,7.0599986 62.3378724,6.92 62.7554411,6.92 C63.1730098,6.92 63.5183018,7.0599986 63.7913275,7.34 C64.0643531,7.6200014 64.2008639,7.96799792 64.2008639,8.384 L64.2008639,8.696 C64.5702516,8.03999672 65.1002347,7.54000172 65.790829,7.196 C66.4814234,6.85199828 67.2201877,6.68 68.007144,6.68 C68.4889541,6.68 68.8944714,6.81599864 69.2237083,7.088 Z M101.540954,3.692 C102.279729,4.18000244 102.873952,4.83599588 103.323642,5.66 C103.773331,6.48400412 103.998172,7.38399512 103.998172,8.36 C103.998172,9.3200048 103.773331,10.2159958 103.323642,11.048 C102.873952,11.8800042 102.279729,12.5399976 101.540954,13.028 C100.802178,13.5160024 100.023264,13.76 99.2041867,13.76 L95.0124605,13.76 L95.0124605,18.296 C95.0124605,18.7280022 94.8839798,19.0799986 94.6270145,19.352 C94.3700491,19.6240014 94.0327872,19.76 93.6152185,19.76 C93.2137101,19.76 92.8844782,19.6200014 92.6275129,19.34 C92.3705475,19.0599986 92.2420668,18.7120021 92.2420668,18.296 L92.2420668,4.424 C92.2420668,4.00799792 92.3825926,3.6600014 92.6636484,3.38 C92.9447043,3.0999986 93.2940113,2.96 93.71158,2.96 L99.2041867,2.96 C100.023264,2.96 100.802178,3.20399756 101.540954,3.692 Z M100.107576,10.64 C100.404692,10.3839987 100.645594,10.052002 100.830287,9.644 C101.014981,9.23599796 101.107327,8.80800224 101.107327,8.36 C101.107327,7.91199776 101.014981,7.48400204 100.830287,7.076 C100.645594,6.66799796 100.404692,6.34000124 100.107576,6.092 C99.8104598,5.84399876 99.5093331,5.72 99.2041867,5.72 L95.0124605,5.72 L95.0124605,11.024 L99.2041867,11.024 C99.5093331,11.024 99.8104598,10.8960013 100.107576,10.64 Z M117.874232,7.088 C118.147257,7.36000136 118.283768,7.71199784 118.283768,8.144 L118.283768,18.296 C118.283768,18.7120021 118.147257,19.0599986 117.874232,19.34 C117.601206,19.6200014 117.255914,19.76 116.838345,19.76 C116.420777,19.76 116.0795,19.6240014 115.814504,19.352 C115.549509,19.0799986 115.408983,18.7360021 115.392922,18.32 C114.991414,18.7840023 114.449386,19.1799984 113.766822,19.508 C113.084258,19.8360016 112.365568,20 111.610733,20 C110.50257,20 109.498814,19.7160028 108.599435,19.148 C107.700056,18.5799972 106.989397,17.792005 106.467436,16.784 C105.945476,15.775995 105.684499,14.6320064 105.684499,13.352 C105.684499,12.0719936 105.941461,10.9240051 106.455391,9.908 C106.969322,8.89199492 107.671951,8.10000284 108.5633,7.532 C109.454648,6.96399716 110.438329,6.68 111.514371,6.68 C112.285267,6.68 113.007971,6.8199986 113.682505,7.1 C114.357039,7.3800014 114.927173,7.73599784 115.392922,8.168 L115.392922,8.144 C115.392922,7.72799792 115.529433,7.3800014 115.802459,7.1 C116.075485,6.8199986 116.420777,6.68 116.838345,6.68 C117.255914,6.68 117.601206,6.81599864 117.874232,7.088 Z M114.525669,16.22 C115.184142,15.4599962 115.513374,14.5040058 115.513374,13.352 C115.513374,12.1999942 115.184142,11.2400038 114.525669,10.472 C113.867195,9.70399616 113.01601,9.32 111.972088,9.32 C110.944227,9.32 110.101072,9.70399616 109.442598,10.472 C108.784125,11.2400038 108.454893,12.1999942 108.454893,13.352 C108.454893,14.5040058 108.78011,15.4599962 109.430553,16.22 C110.080997,16.9800038 110.928167,17.36 111.972088,17.36 C113.01601,17.36 113.867195,16.9800038 114.525669,16.22 Z M130.328958,7.316 C131.164096,7.74000212 131.581658,8.30399648 131.581658,9.008 C131.581658,9.36000176 131.477267,9.66799868 131.268483,9.932 C131.059699,10.1960013 130.786677,10.328 130.44941,10.328 C130.192445,10.328 129.983664,10.2920004 129.82306,10.22 C129.662457,10.1479996 129.505871,10.0520006 129.353298,9.932 C129.200725,9.8119994 129.052169,9.7120004 128.907626,9.632 C128.747023,9.5519996 128.510136,9.48000032 128.19696,9.416 C127.883783,9.35199968 127.630837,9.32 127.438113,9.32 C126.233588,9.32 125.290057,9.69199628 124.607493,10.436 C123.924929,11.1800037 123.583652,12.151994 123.583652,13.352 C123.583652,14.5040058 123.928944,15.4599962 124.619538,16.22 C125.310132,16.9800038 126.193438,17.36 127.26948,17.36 C128.056436,17.36 128.64263,17.264001 129.028078,17.072 C129.12444,17.0239998 129.256936,16.9400006 129.425569,16.82 C129.594203,16.6999994 129.750788,16.6080003 129.895331,16.544 C130.039874,16.4799997 130.216535,16.448 130.42532,16.448 C130.826828,16.448 131.144015,16.5759987 131.37689,16.832 C131.609765,17.0880013 131.7262,17.415998 131.7262,17.816 C131.7262,18.2000019 131.501359,18.5599983 131.05167,18.896 C130.60198,19.2320017 130.007757,19.499999 129.268982,19.7 C128.530206,19.900001 127.743262,20 126.908124,20 C125.671479,20 124.583407,19.7120029 123.643878,19.136 C122.704348,18.5599971 121.977629,17.7640051 121.463698,16.748 C120.949768,15.7319949 120.692806,14.6000062 120.692806,13.352 C120.692806,12.0559935 120.961813,10.904005 121.499834,9.896 C122.037855,8.88799496 122.788664,8.10000284 123.752284,7.532 C124.715904,6.96399716 125.807991,6.68 127.028576,6.68 C128.393705,6.68 129.493821,6.89199788 130.328958,7.316 Z M145,18.32 C145,18.720002 144.843414,19.0559986 144.530238,19.328 C144.217061,19.6000014 143.883814,19.736 143.530487,19.736 C143.112918,19.736 142.759596,19.5760016 142.47051,19.256 L138.134242,14.696 L136.953813,15.776 L136.953813,18.296 C136.953813,18.7120021 136.817302,19.0599986 136.544276,19.34 C136.271251,19.6200014 135.925959,19.76 135.50839,19.76 C135.090821,19.76 134.745529,19.6200014 134.472504,19.34 C134.199478,19.0599986 134.062967,18.7120021 134.062967,18.296 L134.062967,3.464 C134.062967,3.04799792 134.199478,2.7000014 134.472504,2.42 C134.745529,2.1399986 135.090821,2 135.50839,2 C135.925959,2 136.271251,2.1399986 136.544276,2.42 C136.817302,2.7000014 136.953813,3.04799792 136.953813,3.464 L136.953813,12.344 L142.109154,7.376 C142.414301,7.07199848 142.767623,6.92 143.169131,6.92 C143.522458,6.92 143.839645,7.06799852 144.120701,7.364 C144.401757,7.66000148 144.542283,7.95999848 144.542283,8.264 C144.542283,8.64800192 144.349562,9.00799832 143.964114,9.344 L140.326466,12.68 L144.542283,17.24 C144.847429,17.5600016 145,17.919998 145,18.32 Z" id="Power-Pack" fill="#FFFFFF"></path>
                        <path d="M72.5236639,23 C72.4228529,23 72.3212564,22.9711037 72.2324904,22.9120094 C72.0237986,22.773255 71.9434116,22.5064196 72.0416041,22.2765507 L76.0850409,12.7759096 L73.7616751,12.7759096 C73.550103,12.7759096 73.3594786,12.6496509 73.2783061,12.4554468 C73.1968718,12.261503 73.2411239,12.037882 73.3901147,11.8884542 L85.1043506,0.153945356 C85.281359,-0.0230771392 85.5599639,-0.0509321495 85.7683938,0.0886032291 C85.9768238,0.227878281 86.0564252,0.494713659 85.9582327,0.724322249 L81.916367,10.1726376 L84.2384236,10.1726376 C84.4497338,10.1726376 84.6400964,10.2988963 84.7217926,10.4925797 C84.8032269,10.6865235 84.7594985,10.9098842 84.6110314,11.059312 L72.8962718,22.845626 C72.7949371,22.9474139 72.6598242,23 72.5236639,23 Z" id="Shape-Copy" fill="#5DF35C"></path>
                    </g>
                </g>
            </g>
        </g>
    </g>
</svg>