<?xml version="1.0" encoding="UTF-8"?>
<svg width="146px" height="87px" viewBox="0 0 146 87" version="1.1" xmlns="http://www.w3.org/2000/svg" xmlns:xlink="http://www.w3.org/1999/xlink">
    <!-- Generator: Sketch 43.2 (39069) - http://www.bohemiancoding.com/sketch -->
    <title>Group 5</title>
    <desc>Created with Sketch.</desc>
    <defs>
        <path d="M134.472415,0.582011349 C134.19942,0.863600252 134.062831,1.21357503 134.062831,1.63193569 L134.062831,16.5481021 C134.062831,16.9666456 134.19942,17.3164376 134.472415,17.5980265 C134.745593,17.8796154 135.090813,18.0204098 135.508443,18.0204098 C135.925889,18.0204098 136.271293,17.8796154 136.544288,17.5980265 C136.817282,17.3164376 136.953871,16.9666456 136.953871,16.5481021 L136.953871,14.013802 L138.134168,12.9276734 L142.470454,17.5135498 C142.759723,17.8355485 143.112989,17.9962736 143.530435,17.9962736 C143.883884,17.9962736 144.217037,17.8595019 144.530259,17.5859584 C144.843298,17.3125977 145,16.9745082 145,16.5722383 C145,16.1701513 144.847503,15.8081084 144.542144,15.4861097 L140.326356,10.9002333 L143.964155,7.5454855 C144.349603,7.20739596 144.542144,6.84535309 144.542144,6.45935687 C144.542144,6.15363178 144.401715,5.85192938 144.120675,5.55424968 C143.839634,5.25656999 143.52239,5.10754729 143.169124,5.10754729 C142.767585,5.10754729 142.414319,5.26040984 142.109142,5.56613493 L136.953871,10.5623266 L136.953871,1.63193569 C136.953871,1.21357503 136.817282,0.863600252 136.544288,0.582011349 C136.271293,0.300422446 135.925889,0.159810845 135.508443,0.159810845 C135.090813,0.159810845 134.745593,0.300422446 134.472415,0.582011349 Z M93.7115069,1.12507566 L99.204319,1.12507566 C100.023304,1.12507566 100.802245,1.37046028 101.540958,1.86141236 C102.279672,2.35199874 102.873934,3.01190416 103.323562,3.84039723 C103.773373,4.66907314 103.998279,5.57436318 103.998279,6.55571879 C103.998279,7.52116646 103.773373,8.4224338 103.323562,9.25897226 C102.873934,10.0956936 102.279672,10.7596217 101.540958,11.2502081 C100.802245,11.7409773 100.023304,11.9863619 99.204319,11.9863619 L95.0124842,11.9863619 L95.0124842,16.5481021 C95.0124842,16.9825536 94.8839407,17.3365511 94.6270366,17.6102774 C94.3699496,17.8836381 94.0327743,18.0204098 93.615145,18.0204098 C93.2137894,18.0204098 92.8844767,17.8796154 92.6275725,17.5980265 C92.3704855,17.3164376 92.241942,16.9666456 92.241942,16.5481021 L92.241942,2.59738335 C92.241942,2.17920555 92.3825536,1.82904792 92.6635939,1.54745902 C92.9446343,1.26587011 93.2940605,1.12507566 93.7115069,1.12507566 Z M95.0124842,3.9007377 L95.0124842,9.23483607 L99.204319,9.23483607 C99.5093127,9.23483607 99.8104666,9.10610971 100.107598,8.84883985 C100.404729,8.59120429 100.645542,8.2573203 100.830404,7.84700504 C101.014899,7.43687264 101.107238,7.00626103 101.107238,6.55571879 C101.107238,6.10535939 101.014899,5.67474779 100.830404,5.26461538 C100.645542,4.85411728 100.404729,4.52425599 100.107598,4.27484868 C99.8104666,4.02562421 99.5093127,3.9007377 99.204319,3.9007377 L95.0124842,3.9007377 Z M1.46938209,1.12507566 L6.9621942,1.12507566 C7.78117907,1.12507566 8.5601198,1.37046028 9.29883354,1.86141236 C10.0377301,2.35199874 10.6319924,3.01190416 11.0816204,3.84039723 C11.5312484,4.66907314 11.7561538,5.57436318 11.7561538,6.55571879 C11.7561538,7.52116646 11.5312484,8.4224338 11.0816204,9.25897226 C10.6319924,10.0956936 10.0377301,10.7596217 9.29883354,11.2502081 C8.5601198,11.7409773 7.78117907,11.9863619 6.9621942,11.9863619 L2.77035939,11.9863619 L2.77035939,16.5481021 C2.77035939,16.9825536 2.64181589,17.3365511 2.38491173,17.6102774 C2.12800757,17.8836381 1.79064943,18.0204098 1.37320303,18.0204098 C0.971664565,18.0204098 0.642351828,17.8796154 0.385447667,17.5980265 C0.128360656,17.3164376 0,16.9666456 0,16.5481021 L0,2.59738335 C0,2.17920555 0.140428752,1.82904792 0.421469105,1.54745902 C0.702509458,1.26587011 1.05193569,1.12507566 1.46938209,1.12507566 Z M2.77035939,3.9007377 L2.77035939,9.23483607 L6.9621942,9.23483607 C7.26718789,9.23483607 7.56834174,9.10610971 7.86547289,8.84883985 C8.16260404,8.59120429 8.40360025,8.2573203 8.58827869,7.84700504 C8.77295712,7.43687264 8.86511349,7.00626103 8.86511349,6.55571879 C8.86511349,6.10535939 8.77295712,5.67474779 8.58827869,5.26461538 C8.40360025,4.85411728 8.16260404,4.52425599 7.86547289,4.27484868 C7.56834174,4.02562421 7.26718789,3.9007377 6.9621942,3.9007377 L2.77035939,3.9007377 Z M123.752289,5.72302018 C122.78867,6.29424338 122.037888,7.08671501 121.499943,8.10043506 C120.961816,9.11415511 120.692844,10.2726923 120.692844,11.5760467 C120.692844,12.8313115 120.949748,13.9695523 121.463556,14.9913178 C121.977547,16.0130832 122.704376,16.8137831 123.643859,17.3930517 C124.583525,17.9723203 125.671482,18.2619546 126.908096,18.2619546 C127.743354,18.2619546 128.530158,18.1613871 129.268871,17.9600694 C130.007768,17.7589344 130.60203,17.4894136 131.051658,17.1515069 C131.501286,16.8137831 131.726192,16.4517402 131.726192,16.0653783 C131.726192,15.6632913 131.609716,15.3332472 131.376948,15.0759773 C131.143997,14.8183417 130.826936,14.6896154 130.425397,14.6896154 C130.216583,14.6896154 130.03995,14.7219798 129.895315,14.786343 C129.750864,14.8507062 129.594161,14.9430454 129.425574,15.0637264 C129.256986,15.1845902 129.12442,15.268884 129.028058,15.3171564 C128.64261,15.5104288 128.056393,15.6067907 127.269407,15.6067907 C126.193335,15.6067907 125.31017,15.2246343 124.619546,14.4605044 C123.928922,13.6960088 123.583518,12.7345839 123.583518,11.5760467 C123.583518,10.3694199 123.924899,9.39190416 124.607478,8.64349937 C125.290057,7.89527743 126.233562,7.52116646 127.438178,7.52116646 C127.630902,7.52116646 127.883783,7.5535309 128.197005,7.61789407 C128.510227,7.68225725 128.747018,7.75466583 128.90756,7.8351198 C129.052194,7.91557377 129.200668,8.01614124 129.353165,8.13663934 C129.505845,8.2573203 129.662364,8.35386507 129.82309,8.42627364 C129.983632,8.49868222 130.192446,8.53488651 130.449351,8.53488651 C130.786709,8.53488651 131.059704,8.40213745 131.268335,8.13663934 C131.477333,7.87132409 131.581557,7.56139344 131.581557,7.20739596 C131.581557,6.49940101 131.164111,5.9322005 130.328852,5.50579445 C129.493777,5.0793884 128.393569,4.86636822 127.028594,4.86636822 C125.808071,4.86636822 124.715908,5.15179697 123.752289,5.72302018 Z M115.802522,5.28856873 C116.075517,5.00697982 116.420738,4.86636822 116.838367,4.86636822 C117.255813,4.86636822 117.601217,5.00313997 117.874212,5.27650063 C118.14739,5.55004414 118.283796,5.90404161 118.283796,6.33849306 L118.283796,16.5481021 C118.283796,16.9666456 118.14739,17.3164376 117.874212,17.5980265 C117.601217,17.8796154 117.255813,18.0204098 116.838367,18.0204098 C116.420738,18.0204098 116.07954,17.8836381 115.814407,17.6102774 C115.549458,17.3365511 115.409029,16.990599 115.392755,16.5722383 C114.9914,17.0390542 114.449433,17.4373014 113.766854,17.7669798 C113.084275,18.0968411 112.365492,18.2619546 111.610687,18.2619546 C110.502617,18.2619546 109.49877,17.9761602 108.599515,17.4049369 C107.700076,16.8337137 106.989338,16.0412421 106.467484,15.0275221 C105.945448,14.013802 105.684521,12.8633102 105.684521,11.5760467 C105.684521,10.288966 105.941425,9.1342686 106.455416,8.11250315 C106.969224,7.0907377 107.671917,6.29424338 108.56331,5.72302018 C109.454704,5.15179697 110.438253,4.86636822 111.514325,4.86636822 C112.285221,4.86636822 113.008026,5.00697982 113.68256,5.28856873 C114.357093,5.57015763 114.927037,5.92817781 115.392755,6.36262926 L115.392755,6.33849306 C115.392755,5.92013241 115.529344,5.57015763 115.802522,5.28856873 Z M109.430567,14.4605044 C110.080965,15.2246343 110.928108,15.6067907 111.971999,15.6067907 C113.016072,15.6067907 113.867238,15.2246343 114.525498,14.4605044 C115.184124,13.6960088 115.513253,12.7345839 115.513253,11.5760467 C115.513253,10.4175095 115.184124,9.45206179 114.525498,8.67970366 C113.867238,7.90752837 113.016072,7.52116646 111.971999,7.52116646 C110.944199,7.52116646 110.101078,7.90752837 109.442636,8.67970366 C108.78401,9.45206179 108.45488,10.4175095 108.45488,11.5760467 C108.45488,12.7345839 108.78017,13.6960088 109.430567,14.4605044 Z M65.7908701,5.38511349 C65.1000631,5.73106557 64.5703468,6.23408575 64.2008071,6.89380832 L64.2008071,6.57985498 C64.2008071,6.16167718 64.064401,5.81151955 63.7914061,5.52993064 C63.5184111,5.24834174 63.1730076,5.10754729 62.7553783,5.10754729 C62.3379319,5.10754729 61.9925284,5.24834174 61.7195334,5.52993064 C61.4465385,5.81151955 61.3101324,6.16167718 61.3101324,6.57985498 L61.3101324,16.5481021 C61.3101324,16.9666456 61.4465385,17.3164376 61.7195334,17.5980265 C61.9925284,17.8796154 62.3379319,18.0204098 62.7553783,18.0204098 C63.1730076,18.0204098 63.5184111,17.8796154 63.7914061,17.5980265 C64.064401,17.3164376 64.2008071,16.9666456 64.2008071,16.5481021 L64.2008071,10.8278247 C64.2008071,10.103739 64.3253279,9.48022068 64.5741866,8.95745271 C64.8232282,8.43450189 65.14029,8.04430013 65.5259206,7.78666456 C65.9113682,7.5293947 66.3129067,7.40066835 66.7303531,7.40066835 C66.9230769,7.40066835 67.1037327,7.42462169 67.2723203,7.47307692 C67.4410908,7.52116646 67.549338,7.5535309 67.5976103,7.56943884 C67.902604,7.68225725 68.1757818,7.73839218 68.4165952,7.73839218 C68.7698613,7.73839218 69.0752207,7.61368852 69.3321248,7.36446406 C69.5892119,7.1148739 69.7175725,6.74094578 69.7175725,6.24213115 C69.7175725,5.87204288 69.5530076,5.55004414 69.2236948,5.27650063 C68.8945649,5.00313997 68.4888209,4.86636822 68.0071942,4.86636822 C67.2202081,4.86636822 66.4813115,5.03934426 65.7908701,5.38511349 Z M49.7708386,5.69906683 C50.718367,5.14375158 51.7300757,4.86636822 52.8061475,4.86636822 C53.8661286,4.86636822 54.8657692,5.15600252 55.8054351,5.73527112 C56.744918,6.31453972 57.4956999,7.0947604 58.0577806,8.07629887 C58.6198613,9.05802018 58.9010845,10.1198298 58.9010845,11.2622762 C58.8848108,11.6484552 58.732314,11.9624086 58.4434111,12.2035876 C58.1541425,12.4449496 57.8167844,12.5656305 57.4313367,12.5656305 L49.48157,12.5656305 C49.6742938,13.5149874 50.1160593,14.2591866 50.8065006,14.7982282 C51.4973077,15.3374527 52.2760656,15.6067907 53.1433228,15.6067907 C53.8017654,15.6067907 54.3157566,15.546633 54.6851135,15.4257692 C55.0546532,15.3050883 55.3477617,15.1765448 55.5644388,15.039773 C55.7812989,14.9030013 55.929773,14.8102963 56.0100441,14.762024 C56.2991299,14.6172068 56.5723077,14.5447982 56.8292119,14.5447982 C57.1663871,14.5447982 57.4556557,14.6654792 57.6964691,14.9068411 C57.9372825,15.1483859 58.0577806,15.4299748 58.0577806,15.7516078 C58.0577806,16.1860593 57.8328752,16.5804666 57.3832472,16.9342812 C56.9336192,17.3043695 56.3313115,17.6183228 55.5765069,17.8755927 C54.8215195,18.1330454 54.0588525,18.2619546 53.2877743,18.2619546 C51.9388903,18.2619546 50.7624338,17.9803657 49.7587705,17.417005 C48.7549243,16.8538272 47.9800063,16.0774464 47.4340164,15.0878625 C46.8878436,14.0984615 46.6148487,12.984174 46.6148487,11.7451828 C46.6148487,10.3613745 46.9041173,9.14651955 47.4821059,8.10043506 C48.0602774,7.05453342 48.8231274,6.25401639 49.7708386,5.69906683 Z M52.8061475,7.52116646 C50.9430895,7.52116646 49.8430643,8.3982976 49.5057062,10.1521942 L55.8173203,10.1521942 L55.8173203,9.98305801 C55.75314,9.30724464 55.4238272,8.72797604 54.8295649,8.24525221 C54.2354855,7.76271122 53.5609521,7.52116646 52.8061475,7.52116646 Z M16.5501135,5.72302018 C17.5459142,5.15179697 18.6539849,4.86636822 19.8745082,4.86636822 C21.0791236,4.86636822 22.1833544,5.15179697 23.1870177,5.72302018 C24.1908638,6.29424338 24.9816898,7.0907377 25.5600441,8.11250315 C26.1380328,9.1342686 26.4273014,10.288966 26.4273014,11.5760467 C26.4273014,12.8633102 26.1380328,14.0180076 25.5600441,15.039773 C24.9816898,16.0615385 24.1908638,16.8538272 23.1870177,17.417005 C22.1833544,17.9803657 21.0791236,18.2619546 19.8745082,18.2619546 C18.6539849,18.2619546 17.5459142,17.9803657 16.5501135,17.417005 C15.5544956,16.8538272 14.7675095,16.0615385 14.1891551,15.039773 C13.6111665,14.0180076 13.3218979,12.8633102 13.3218979,11.5760467 C13.3218979,10.288966 13.6111665,9.1342686 14.1891551,8.11250315 C14.7675095,7.0907377 15.5544956,6.29424338 16.5501135,5.72302018 Z M18.0315637,15.0999306 C18.5857818,15.4380202 19.1999748,15.6067907 19.8745082,15.6067907 C20.5492245,15.6067907 21.1634174,15.4380202 21.7176356,15.0999306 C22.2716709,14.762024 22.7130706,14.2875284 23.0423834,13.6758953 C23.3716961,13.0644451 23.536261,12.3644956 23.536261,11.5760467 C23.536261,10.7875977 23.3716961,10.0836255 23.0423834,9.46431274 C22.7130706,8.8446343 22.2716709,8.36593317 21.7176356,8.02802648 C21.1634174,7.69030265 20.5492245,7.52116646 19.8745082,7.52116646 C19.1999748,7.52116646 18.5857818,7.69030265 18.0315637,8.02802648 C17.4775284,8.36593317 17.0357629,8.8446343 16.706633,9.46431274 C16.3775032,10.0836255 16.2127554,10.7875977 16.2127554,11.5760467 C16.2127554,12.3644956 16.3775032,13.0644451 16.706633,13.6758953 C17.0357629,14.2875284 17.4775284,14.762024 18.0315637,15.0999306 Z M42.7845082,5.33702396 C42.543512,5.48988651 42.3751072,5.71899748 42.2785624,6.02490542 L39.7009269,12.9761286 L37.8460971,7.93148172 C37.7175536,7.62593947 37.5608512,7.40066835 37.3761728,7.2558512 C37.1914943,7.11103405 36.9305675,7.03862547 36.5932093,7.03862547 C35.9669483,7.03862547 35.5251828,7.33630517 35.2682787,7.93148172 L33.3651765,13.0966267 L30.7634048,6.02490542 C30.6670429,5.71899748 30.5024779,5.48988651 30.2695271,5.33702396 C30.0365763,5.18416141 29.7597415,5.10754729 29.4384741,5.10754729 C29.0047541,5.10754729 28.6555107,5.25656999 28.3905612,5.55424968 C28.1256116,5.85192938 27.9930454,6.20172131 27.9930454,6.60417402 C27.9930454,6.79708071 28.025227,6.98212484 28.0894073,7.15912358 L31.7752963,17.1034174 C31.8714754,17.3930517 32.0440858,17.6221627 32.2931274,17.7912989 C32.542169,17.9600694 32.8109584,18.0447289 33.100227,18.0447289 L33.2929508,18.0204098 C33.8389407,17.9882282 34.2485246,17.682686 34.5215195,17.1034174 L36.4727112,11.1659142 L38.5204477,17.1034174 C38.7936255,17.682686 39.2030265,17.9882282 39.7490164,18.0204098 L39.9417402,18.0447289 C40.2310088,18.0447289 40.4999811,17.9600694 40.7488398,17.7912989 C40.9978815,17.6221627 41.1704918,17.3930517 41.2668537,17.1034174 L44.9525599,7.15912358 C45.0167402,6.93385246 45.0491047,6.74899117 45.0491047,6.60417402 C45.0491047,6.16972257 44.9165385,5.81151955 44.6514061,5.52993064 C44.3864565,5.24834174 44.0613493,5.10754729 43.6759016,5.10754729 C43.3224527,5.10754729 43.0255044,5.18416141 42.7845082,5.33702396 Z" id="path-1"></path>
    </defs>
    <g id="Team-structure" stroke="none" stroke-width="1" fill="none" fill-rule="evenodd">
        <g id="Group-5">
            <g id="renewable-group-PP-light-house-lockup-Copy">
                <path d="M9.07,46.4 C9.2500009,46.5733342 9.34,46.7999986 9.34,47.08 C9.34,47.346668 9.2500009,47.5666658 9.07,47.74 C8.8899991,47.9133342 8.6600014,48 8.38,48 L1.62,48 C1.3399986,48 1.1100009,47.9066676 0.93,47.72 C0.7499991,47.5333324 0.66,47.306668 0.66,47.04 L0.66,34.96 C0.66,34.693332 0.7533324,34.4666676 0.94,34.28 C1.1266676,34.0933324 1.3666652,34 1.66,34 C1.926668,34 2.1566657,34.0933324 2.35,34.28 C2.5433343,34.4666676 2.64,34.693332 2.64,34.96 L2.64,46.14 L8.38,46.14 C8.6600014,46.14 8.8899991,46.2266658 9.07,46.4 Z M12.95,47.72 C12.7699991,47.9066676 12.5400014,48 12.26,48 C11.993332,48 11.7700009,47.9066676 11.59,47.72 C11.4099991,47.5333324 11.32,47.306668 11.32,47.04 L11.32,38.38 C11.32,38.113332 11.4099991,37.8866676 11.59,37.7 C11.7700009,37.5133324 11.993332,37.42 12.26,37.42 C12.5400014,37.42 12.7699991,37.5133324 12.95,37.7 C13.1300009,37.8866676 13.22,38.113332 13.22,38.38 L13.22,47.04 C13.22,47.306668 13.1300009,47.5333324 12.95,47.72 Z M11.43,35.89 C11.2633325,35.7499993 11.18,35.5266682 11.18,35.22 L11.18,34.9 C11.18,34.5799984 11.2699991,34.353334 11.45,34.22 C11.6300009,34.086666 11.9066648,34.02 12.28,34.02 C12.6533352,34.02 12.9233325,34.0899993 13.09,34.23 C13.2566675,34.3700007 13.34,34.5933318 13.34,34.9 L13.34,35.22 C13.34,35.5400016 13.2533342,35.766666 13.08,35.9 C12.9066658,36.033334 12.6333352,36.1 12.26,36.1 C11.8733314,36.1 11.5966675,36.0300007 11.43,35.89 Z M25.41,37.65 C25.5900009,37.8300009 25.68,38.0666652 25.68,38.36 L25.68,47.16 C25.68,48.2400054 25.4500023,49.1433297 24.99,49.87 C24.5299977,50.5966703 23.9066706,51.1333316 23.12,51.48 C22.3333294,51.8266684 21.4466716,52 20.46,52 C19.926664,52 19.3033369,51.9066676 18.59,51.72 C17.8766631,51.5333324 17.420001,51.340001 17.22,51.14 C16.8066646,50.9266656 16.6,50.6600016 16.6,50.34 C16.6,50.2599996 16.6266664,50.153334 16.68,50.02 C16.8266674,49.686665 17.0733316,49.52 17.42,49.52 C17.5933342,49.52 17.779999,49.5599996 17.98,49.64 C19.046672,50.0533354 19.879997,50.26 20.48,50.26 C21.546672,50.26 22.3633305,50.0033359 22.93,49.49 C23.4966695,48.9766641 23.78,48.2733378 23.78,47.38 L23.78,46.3 C23.4999986,46.8200026 23.0300033,47.2666648 22.37,47.64 C21.7099967,48.0133352 21.013337,48.2 20.28,48.2 C19.3599954,48.2 18.5200038,47.966669 17.76,47.5 C16.9999962,47.033331 16.4033355,46.3833375 15.97,45.55 C15.5366645,44.7166625 15.32,43.7800052 15.32,42.74 C15.32,41.6999948 15.5366645,40.7633375 15.97,39.93 C16.4033355,39.0966625 16.9966629,38.446669 17.75,37.98 C18.5033371,37.513331 19.3333288,37.28 20.24,37.28 C20.973337,37.28 21.6566635,37.446665 22.29,37.78 C22.9233365,38.113335 23.4199982,38.5199976 23.78,39 L23.78,38.36 C23.78,38.0799986 23.8666658,37.8466676 24.04,37.66 C24.2133342,37.4733324 24.4399986,37.38 24.72,37.38 C25.0000014,37.38 25.2299991,37.4699991 25.41,37.65 Z M22.24,45.97 C22.7466692,45.6566651 23.1433319,45.2166695 23.43,44.65 C23.7166681,44.0833305 23.86,43.4466702 23.86,42.74 C23.86,42.0333298 23.7166681,41.4000028 23.43,40.84 C23.1433319,40.2799972 22.7466692,39.8400016 22.24,39.52 C21.7333308,39.1999984 21.1533366,39.04 20.5,39.04 C19.8599968,39.04 19.2866692,39.1999984 18.78,39.52 C18.2733308,39.8400016 17.8766681,40.2833305 17.59,40.85 C17.3033319,41.4166695 17.16,42.0466632 17.16,42.74 C17.16,43.4333368 17.3033319,44.0633305 17.59,44.63 C17.8766681,45.1966695 18.2733308,45.6399984 18.78,45.96 C19.2866692,46.2800016 19.8599968,46.44 20.5,46.44 C21.1533366,46.44 21.7333308,46.2833349 22.24,45.97 Z M37.24,41.7 L37.24,47.04 C37.24,47.306668 37.1500009,47.5333324 36.97,47.72 C36.7899991,47.9066676 36.5600014,48 36.28,48 C36.013332,48 35.7900009,47.9066676 35.61,47.72 C35.4299991,47.5333324 35.34,47.306668 35.34,47.04 L35.34,41.7 C35.34,39.966658 34.606674,39.1 33.14,39.1 C32.3533294,39.1 31.7000026,39.3499975 31.18,39.85 C30.6599974,40.3500025 30.4,40.966663 30.4,41.7 L30.4,47.04 C30.4,47.306668 30.3100009,47.5333324 30.13,47.72 C29.9499991,47.9066676 29.7200014,48 29.44,48 C29.1599986,48 28.9333342,47.9100009 28.76,47.73 C28.5866658,47.5499991 28.5,47.3200014 28.5,47.04 L28.5,34.16 C28.5,33.893332 28.5899991,33.6666676 28.77,33.48 C28.9500009,33.2933324 29.173332,33.2 29.44,33.2 C29.7200014,33.2 29.9499991,33.2933324 30.13,33.48 C30.3100009,33.6666676 30.4,33.893332 30.4,34.16 L30.4,39.22 C30.733335,38.6999974 31.199997,38.2566685 31.8,37.89 C32.400003,37.5233315 33.0399966,37.34 33.72,37.34 C36.0666784,37.34 37.24,38.7933188 37.24,41.7 Z M42.92,39.38 L42.92,45.34 C42.92,46.00667 43.219997,46.34 43.82,46.34 C43.9133338,46.34 44.0399992,46.3166669 44.2,46.27 C44.3600008,46.2233331 44.4866662,46.2 44.58,46.2 C44.7533342,46.2 44.8999994,46.2733326 45.02,46.42 C45.1400006,46.5666674 45.2,46.7533322 45.2,46.98 C45.2,47.2600014 45.0400016,47.499999 44.72,47.7 C44.3999984,47.900001 44.040002,48 43.64,48 C43.1999978,48 42.7966685,47.9533338 42.43,47.86 C42.0633315,47.7666662 41.7366681,47.5300019 41.45,47.15 C41.1633319,46.7699981 41.02,46.1933372 41.02,45.42 L41.02,39.38 L39.86,39.38 C39.6066654,39.38 39.3966675,39.2966675 39.23,39.13 C39.0633325,38.9633325 38.98,38.7533346 38.98,38.5 C38.98,38.2466654 39.0633325,38.0400008 39.23,37.88 C39.3966675,37.7199992 39.6066654,37.64 39.86,37.64 L41.02,37.64 L41.02,35.96 C41.02,35.693332 41.1099991,35.4666676 41.29,35.28 C41.4700009,35.0933324 41.6999986,35 41.98,35 C42.246668,35 42.4699991,35.0933324 42.65,35.28 C42.8300009,35.4666676 42.92,35.693332 42.92,35.96 L42.92,37.64 L44.58,37.64 C44.8333346,37.64 45.0433325,37.7233325 45.21,37.89 C45.3766675,38.0566675 45.46,38.2666654 45.46,38.52 C45.46,38.7733346 45.3766675,38.9799992 45.21,39.14 C45.0433325,39.3000008 44.8333346,39.38 44.58,39.38 L42.92,39.38 Z M64.26,34.27 C64.4466676,34.4500009 64.54,34.6799986 64.54,34.96 L64.54,47.02 C64.5266666,47.3000014 64.4266676,47.5333324 64.24,47.72 C64.0533324,47.9066676 63.8133348,48 63.52,48 C63.253332,48 63.0233343,47.9066676 62.83,47.72 C62.6366657,47.5333324 62.54,47.3000014 62.54,47.02 L62.54,41.84 L55.44,41.84 L55.44,47.02 C55.44,47.3000014 55.340001,47.5333324 55.14,47.72 C54.939999,47.9066676 54.706668,48 54.44,48 C54.1466652,48 53.9100009,47.9066676 53.73,47.72 C53.5499991,47.5333324 53.46,47.3000014 53.46,47.02 L53.46,34.96 C53.46,34.693332 53.5533324,34.4666676 53.74,34.28 C53.9266676,34.0933324 54.1666652,34 54.46,34 C54.726668,34 54.9566657,34.0933324 55.15,34.28 C55.3433343,34.4666676 55.44,34.693332 55.44,34.96 L55.44,40 L62.54,40 L62.54,34.96 C62.54,34.693332 62.639999,34.4666676 62.84,34.28 C63.040001,34.0933324 63.273332,34 63.54,34 C63.8333348,34 64.0733324,34.0899991 64.26,34.27 Z M76.82,45.56 C76.353331,46.3866708 75.7166707,47.033331 74.91,47.5 C74.1033293,47.966669 73.2133382,48.2 72.24,48.2 C71.2666618,48.2 70.3766707,47.966669 69.57,47.5 C68.7633293,47.033331 68.126669,46.3866708 67.66,45.56 C67.193331,44.7333292 66.96,43.8000052 66.96,42.76 C66.96,41.7199948 67.193331,40.7800042 67.66,39.94 C68.126669,39.0999958 68.7633293,38.446669 69.57,37.98 C70.3766707,37.513331 71.2666618,37.28 72.24,37.28 C73.2133382,37.28 74.1033293,37.513331 74.91,37.98 C75.7166707,38.446669 76.353331,39.0999958 76.82,39.94 C77.286669,40.7800042 77.52,41.7199948 77.52,42.76 C77.52,43.8000052 77.286669,44.7333292 76.82,45.56 Z M75.17,40.83 C74.8699985,40.2633305 74.4633359,39.8233349 73.95,39.51 C73.4366641,39.1966651 72.8666698,39.04 72.24,39.04 C71.6133302,39.04 71.0433359,39.1966651 70.53,39.51 C70.0166641,39.8233349 69.6100015,40.2633305 69.31,40.83 C69.0099985,41.3966695 68.86,42.0399964 68.86,42.76 C68.86,43.4666702 69.0099985,44.0999972 69.31,44.66 C69.6100015,45.2200028 70.0166641,45.6566651 70.53,45.97 C71.0433359,46.2833349 71.6133302,46.44 72.24,46.44 C72.8666698,46.44 73.4366641,46.2833349 73.95,45.97 C74.4633359,45.6566651 74.8699985,45.2200028 75.17,44.66 C75.4700015,44.0999972 75.62,43.4666702 75.62,42.76 C75.62,42.0399964 75.4700015,41.3966695 75.17,40.83 Z M88.21,37.8 C88.3900009,37.9866676 88.48,38.213332 88.48,38.48 L88.48,43.8 C88.48,45.1866736 88.0966705,46.2633295 87.33,47.03 C86.5633295,47.7966705 85.480007,48.18 84.08,48.18 C82.6933264,48.18 81.6200038,47.7966705 80.86,47.03 C80.0999962,46.2633295 79.72,45.1866736 79.72,43.8 L79.72,38.48 C79.72,38.213332 79.8099991,37.9866676 79.99,37.8 C80.1700009,37.6133324 80.393332,37.52 80.66,37.52 C80.9400014,37.52 81.1699991,37.6133324 81.35,37.8 C81.5300009,37.9866676 81.62,38.213332 81.62,38.48 L81.62,43.8 C81.62,45.5466754 82.4399918,46.42 84.08,46.42 C84.8933374,46.42 85.5133312,46.2000022 85.94,45.76 C86.3666688,45.3199978 86.58,44.666671 86.58,43.8 L86.58,38.48 C86.58,38.213332 86.6699991,37.9866676 86.85,37.8 C87.0300009,37.6133324 87.253332,37.52 87.52,37.52 C87.8000014,37.52 88.0299991,37.6133324 88.21,37.8 Z M90.54,45.82 C90.54,45.553332 90.6799986,45.3266676 90.96,45.14 C91.093334,45.0466662 91.2466658,45 91.42,45 C91.6600012,45 91.879999,45.099999 92.08,45.3 C92.480002,45.7533356 92.9099977,46.0933322 93.37,46.32 C93.8300023,46.5466678 94.3799968,46.66 95.02,46.66 C95.5266692,46.6466666 95.9733314,46.5300011 96.36,46.31 C96.7466686,46.0899989 96.94,45.7333358 96.94,45.24 C96.94,44.7866644 96.7433353,44.4400012 96.35,44.2 C95.9566647,43.9599988 95.3800038,43.740001 94.62,43.54 C93.8733296,43.339999 93.2533358,43.1300011 92.76,42.91 C92.2666642,42.6899989 91.8500017,42.3700021 91.51,41.95 C91.1699983,41.5299979 91,40.9800034 91,40.3 C91,39.699997 91.1699983,39.1733356 91.51,38.72 C91.8500017,38.2666644 92.3033305,37.9133346 92.87,37.66 C93.4366695,37.4066654 94.05333,37.28 94.72,37.28 C95.3600032,37.28 95.9966635,37.3999988 96.63,37.64 C97.2633365,37.8800012 97.779998,38.2466642 98.18,38.74 C98.3400008,38.9266676 98.42,39.119999 98.42,39.32 C98.42,39.5333344 98.3133344,39.739999 98.1,39.94 C97.966666,40.0600006 97.800001,40.12 97.6,40.12 C97.3599988,40.12 97.1666674,40.0400008 97.02,39.88 C96.7399986,39.5599984 96.3966687,39.3133342 95.99,39.14 C95.5833313,38.9666658 95.1333358,38.88 94.64,38.88 C94.1333308,38.88 93.7033351,38.9833323 93.35,39.19 C92.9966649,39.3966677 92.82,39.7466642 92.82,40.24 C92.8333334,40.706669 93.0366647,41.0533322 93.43,41.28 C93.8233353,41.5066678 94.4266626,41.7266656 95.24,41.94 C95.9466702,42.1266676 96.533331,42.3266656 97,42.54 C97.466669,42.7533344 97.8599984,43.0699979 98.18,43.49 C98.5000016,43.9100021 98.66,44.4599966 98.66,45.14 C98.66,45.7666698 98.4800018,46.3099977 98.12,46.77 C97.7599982,47.2300023 97.2900029,47.5833321 96.71,47.83 C96.1299971,48.0766679 95.5133366,48.2 94.86,48.2 C94.0199958,48.2 93.2433369,48.0533348 92.53,47.76 C91.8166631,47.4666652 91.2133358,47.0000032 90.72,46.36 C90.5999994,46.1733324 90.54,45.9933342 90.54,45.82 Z M109.76,42.97 C109.573332,43.1366675 109.353335,43.22 109.1,43.22 L102.06,43.22 C102.153334,44.1933382 102.52333,44.9733304 103.17,45.56 C103.81667,46.1466696 104.606662,46.44 105.54,46.44 C106.180003,46.44 106.699998,46.3466676 107.1,46.16 C107.500002,45.9733324 107.853332,45.7333348 108.16,45.44 C108.360001,45.3199994 108.553332,45.26 108.74,45.26 C108.966668,45.26 109.156666,45.3399992 109.31,45.5 C109.463334,45.6600008 109.54,45.8466656 109.54,46.06 C109.54,46.3400014 109.406668,46.5933322 109.14,46.82 C108.753331,47.2066686 108.240003,47.533332 107.6,47.8 C106.959997,48.066668 106.30667,48.2 105.64,48.2 C104.559995,48.2 103.610004,47.9733356 102.79,47.52 C101.969996,47.0666644 101.336669,46.4333374 100.89,45.62 C100.443331,44.8066626 100.22,43.8866718 100.22,42.86 C100.22,41.7399944 100.449998,40.7566709 100.91,39.91 C101.370002,39.0633291 101.976663,38.4133356 102.73,37.96 C103.483337,37.5066644 104.293329,37.28 105.16,37.28 C106.013338,37.28 106.81333,37.4999978 107.56,37.94 C108.30667,38.3800022 108.906664,38.9866628 109.36,39.76 C109.813336,40.5333372 110.046667,41.3999952 110.06,42.36 C110.046667,42.6000012 109.946668,42.8033325 109.76,42.97 Z M103.22,39.67 C102.673331,40.0900021 102.313334,40.7399956 102.14,41.62 L108.04,41.62 L108.04,41.46 C107.973333,40.7533298 107.65667,40.1733356 107.09,39.72 C106.523331,39.2666644 105.880004,39.04 105.16,39.04 C104.41333,39.04 103.766669,39.2499979 103.22,39.67 Z" id="Light-House-Copy" fill="#736F66"></path>
                <g id="Power-Pack" transform="translate(1.000000, 0.500000)">
                    <path d="M87.4127289,11.7383443 C87.090913,10.0872093 85.4913417,9.00967465 83.8402068,9.33149054 L83.7573758,9.34758134 L79.2018525,10.2358663 L84.0407932,2.07490794 C84.3902194,1.4874111 84.2550933,0.717978562 83.701058,0.288281211 C83.1013102,-0.176706179 82.2382585,-0.0675447667 81.7732711,0.532203026 L72.7593178,12.155425 C72.4696835,12.5289874 72.2961589,12.9658159 72.2961589,13.475053 C72.295976,14.6942963 73.2842799,15.650053 74.5035233,15.650053 L74.8684918,15.650053 L78.8652257,15.6838802 L74.6728424,23.8825057 C74.3912535,24.4321526 74.505169,25.1321021 74.990087,25.558691 C75.5633216,26.0626255 76.43643,26.0108789 76.9405473,25.4376444 L86.7104023,14.3306078 C87.3044817,13.6469319 87.5994187,12.6962951 87.4127289,11.7383443" id="bolt" fill="#5DF35C"></path>
                    <g id="logo" transform="translate(0.000000, 3.231324)">
                        <mask id="mask-2" fill="white">
                            <use xlink:href="#path-1"></use>
                        </mask>
                        <g id="Clip-4"></g>
                        <polygon id="Fill-3" fill="#736F66" mask="url(#mask-2)" points="-0.914249685 19.1760214 145.91425 19.1760214 145.91425 -0.75462169 -0.914249685 -0.75462169"></polygon>
                    </g>
                </g>
            </g>
            <g id="Group-4-Copy-5" transform="translate(0.000000, 66.000000)">
                <g id="logo-copy" fill-rule="nonzero" fill="#00B1E7">
                    <path d="M19.688057,6.83669609 C19.8975045,6.11727617 20,5.37137453 20,4.61223203 C20,3.85750315 19.8930481,3.10718789 19.688057,2.39218159 C19.416221,1.49180328 18.7522282,0.785624212 17.8698752,0.454602774 C17.0008913,0.154476671 16.0918004,0 15.1693405,0 C14.2468806,0 13.342246,0.154476671 12.473262,0.454602774 C11.5864528,0.790037831 10.9224599,1.4962169 10.6550802,2.39218159 C10.4456328,3.11601513 10.3386809,3.86633039 10.3386809,4.61664565 C10.3386809,5.36696091 10.4456328,6.11727617 10.6550802,6.84110971 C10.9224599,7.7370744 11.5864528,8.44325347 12.473262,8.77868852 C13.342246,9.07881463 14.2513369,9.2332913 15.1693405,9.2332913 C16.087344,9.2332913 16.9964349,9.07881463 17.8698752,8.77868852 C18.7566845,8.44325347 19.416221,7.7370744 19.688057,6.83669609 M17.0855615,4.61223203 C17.0855615,4.98297604 17.0276292,5.34489281 16.9206774,5.69356873 C16.7691622,6.16582598 16.3680927,6.52332913 15.8734403,6.61601513 C15.6461676,6.66015132 15.4099822,6.68221942 15.1737968,6.68221942 C14.9376114,6.68221942 14.701426,6.66015132 14.4741533,6.61601513 C13.9795009,6.51891551 13.5784314,6.16582598 13.4269162,5.69356873 C13.315508,5.34489281 13.2620321,4.98297604 13.2620321,4.61223203 C13.2620321,4.24148802 13.3199643,3.87515763 13.4269162,3.53089533 C13.5784314,3.05863808 13.9795009,2.70113493 14.4741533,2.60844893 C14.701426,2.56431274 14.9376114,2.54224464 15.1737968,2.54224464 C15.4144385,2.54224464 15.6461676,2.56431274 15.8734403,2.60844893 C16.3680927,2.70554855 16.7691622,3.05863808 16.9206774,3.53089533 C17.0276292,3.87957125 17.0855615,4.24590164 17.0855615,4.61223203 M9.34937611,16.7099622 C9.55882353,15.9905422 9.66131907,15.2446406 9.66131907,14.4854981 C9.66131907,13.7307692 9.5543672,12.980454 9.34937611,12.2654477 C9.07754011,11.3650694 8.41354724,10.6588903 7.5311943,10.3278689 C6.65775401,10.0277427 5.75311943,9.87326608 4.83065954,9.87326608 C3.90819964,9.87326608 3.00356506,10.0277427 2.13458111,10.3278689 C1.24777184,10.6588903 0.583778966,11.3650694 0.316399287,12.2654477 C0.106951872,12.9848676 0,13.7351828 0,14.4854981 C0,15.2358134 0.106951872,15.9861286 0.316399287,16.7099622 C0.583778966,17.6059269 1.24777184,18.3121059 2.13458111,18.647541 C3.00356506,18.9476671 3.91265597,19.1021438 4.83065954,19.1021438 C5.7486631,19.1021438 6.65775401,18.9476671 7.5311943,18.647541 C8.41354724,18.3121059 9.07754011,17.6059269 9.34937611,16.7099622 M6.74688057,14.4854981 C6.74688057,14.8562421 6.68894831,15.2181589 6.58199643,15.5668348 C6.43048128,16.0390921 6.02941176,16.3965952 5.53475936,16.4892812 C5.30748663,16.5334174 5.07130125,16.5554855 4.83511586,16.5554855 C4.59893048,16.5554855 4.3627451,16.5334174 4.13547237,16.4892812 C3.64081996,16.3921816 3.23975045,16.0390921 3.08823529,15.5668348 C2.97682709,15.2181589 2.92335116,14.8562421 2.92335116,14.4854981 C2.92335116,14.1147541 2.98128342,13.7484237 3.08823529,13.4041614 C3.23975045,12.9319042 3.64081996,12.574401 4.13547237,12.481715 C4.3627451,12.4375788 4.59893048,12.4155107 4.83511586,12.4155107 C5.07130125,12.4155107 5.30748663,12.4375788 5.53475936,12.481715 C6.02941176,12.5788146 6.43048128,12.9319042 6.58199643,13.4041614 C6.68894831,13.7528373 6.74688057,14.1147541 6.74688057,14.4854981 M6.74688057,4.59457755 L9.6657754,4.59457755 C9.6657754,3.8442623 9.55882353,3.10277427 9.35383244,2.38776797 C9.08199643,1.48738966 8.41800357,0.781210593 7.53565062,0.450189155 C6.65775401,0.154476671 5.75311943,0 4.83065954,0 C3.90819964,0 3.00356506,0.154476671 2.13458111,0.454602774 C1.24777184,0.785624212 0.583778966,1.49180328 0.316399287,2.39218159 C0.106951872,3.11601513 0,3.86191677 0,4.61223203 C0,5.36254729 0.106951872,6.11286255 0.316399287,6.83669609 C0.583778966,7.73266078 1.24777184,8.43883985 2.13458111,8.77427491 C3.00356506,9.07440101 3.91265597,9.22887768 4.83065954,9.22887768 C5.7486631,9.22887768 6.65775401,9.07440101 7.5311943,8.77427491 C8.41354724,8.44325347 9.07754011,7.7370744 9.34937611,6.83669609 C9.38502674,6.71311475 9.41622103,6.58953342 9.44741533,6.46153846 L6.69786096,5.19041614 C6.67112299,5.36254729 6.63101604,5.53026482 6.57754011,5.69356873 C6.42602496,6.16582598 6.02495544,6.52332913 5.53030303,6.61601513 C5.3030303,6.66015132 5.06684492,6.68221942 4.83065954,6.68221942 C4.59447415,6.68221942 4.35828877,6.66015132 4.13101604,6.61601513 C3.63636364,6.51891551 3.23529412,6.16582598 3.08377897,5.69356873 C2.97237077,5.34489281 2.91889483,4.98297604 2.91889483,4.61223203 C2.91889483,4.24148802 2.97682709,3.87515763 3.08377897,3.53089533 C3.23529412,3.05863808 3.63636364,2.70113493 4.13101604,2.60844893 C4.35828877,2.56431274 4.59447415,2.54224464 4.83065954,2.54224464 C5.06684492,2.54224464 5.3030303,2.56431274 5.53030303,2.60844893 C6.02495544,2.70554855 6.42602496,3.05863808 6.57754011,3.53089533 C6.68894831,3.87515763 6.74242424,4.23266078 6.74688057,4.59457755 M10.6550802,12.261034 C10.4456328,12.9848676 10.3386809,13.7351828 10.3386809,14.4854981 L10.3386809,21 L13.2575758,21 L13.2575758,14.4854981 C13.2575758,14.1147541 13.315508,13.7484237 13.4224599,13.4041614 C13.573975,12.9319042 13.9750446,12.574401 14.469697,12.481715 C14.6969697,12.4375788 14.9331551,12.4155107 15.1693405,12.4155107 C15.4099822,12.4155107 15.6417112,12.4375788 15.868984,12.481715 C16.3636364,12.5788146 16.7647059,12.9319042 16.916221,13.4041614 C17.0276292,13.7528373 17.0811052,14.1191677 17.0811052,14.4854981 C17.0811052,14.8562421 17.0231729,15.2181589 16.916221,15.5668348 C16.7647059,16.0390921 16.3636364,16.3965952 15.868984,16.4892812 C15.6417112,16.5334174 15.4055258,16.5554855 15.1693405,16.5554855 C14.9331551,16.5554855 14.6969697,16.5334174 14.469697,16.4892812 C14.3716578,16.4716267 14.2825312,16.4407314 14.1934046,16.4054224 L15.1827094,19.0977301 C16.0962567,19.0977301 17.0008913,18.9432535 17.8698752,18.6431274 C18.7522282,18.3121059 19.416221,17.6059269 19.688057,16.7055485 C19.8975045,15.9861286 20,15.240227 20,14.4810845 C20,13.7263556 19.8930481,12.9760404 19.688057,12.2566204 C19.416221,11.3562421 18.7522282,10.6500631 17.8698752,10.3190416 C16.9964349,10.0189155 16.0918004,9.86443884 15.1693405,9.86443884 C14.2468806,9.86443884 13.342246,10.0189155 12.473262,10.3190416 C11.5864528,10.6588903 10.9224599,11.3650694 10.6550802,12.261034" id="XMLID_8_"></path>
                </g>
                <text id="a-Co-op-service" font-family="AvenirNext-Medium, Avenir Next" font-size="14" font-weight="400" fill="#6E6E6E">
                    <tspan x="29" y="14">a Co-op service</tspan>
                </text>
            </g>
        </g>
    </g>
</svg>